<svg width="77" height="73" viewBox="0 0 77 73" fill="none" xmlns="http://www.w3.org/2000/svg">
<mask id="mask0_216_137" style="mask-type:alpha" maskUnits="userSpaceOnUse" x="0" y="-4" width="77" height="77">
<rect y="-4" width="77" height="77" fill="#DD6868"/>
</mask>
<g mask="url(#mask0_216_137)">
</g>
<path fill-rule="evenodd" clip-rule="evenodd" d="M26.4475 1.25004C23.4389 1.26165 21.0093 3.72441 21.021 6.75075L21.0312 9.39896L19.1529 7.53429C17.0052 5.4021 13.5457 5.40455 11.4259 7.53978C9.30619 9.67499 9.32885 13.1344 11.4766 15.2666L13.4101 17.186L10.6877 17.2071C7.6614 17.2304 5.22694 19.6883 5.25016 22.697C5.27341 25.7057 7.7455 28.1258 10.7718 28.1024L13.4046 28.0819L11.5559 29.9577C9.43159 32.1132 9.44662 35.5726 11.5895 37.6847C13.7324 39.7965 17.1917 39.7614 19.3161 37.6059L21.2372 35.6565L21.269 38.3941C21.304 41.4201 23.7713 43.8452 26.7798 43.8103C29.7885 43.7755 32.1989 41.2939 32.1638 38.2679L32.1335 35.6439L34.0106 37.4806C36.1738 39.597 39.6332 39.5695 41.7374 37.419C43.509 35.6082 43.7552 32.8697 42.4974 30.786C43.6708 31.6835 45.1882 32.8814 46.8316 34.2739C50.5182 37.3976 54.7478 41.4242 57.1978 45.1948C58.8835 47.789 60.3172 51.1705 61.4858 54.5746C59.4271 52.6346 56.4607 50.4224 52.7835 49.2657C47.3959 47.571 41.9621 48.6073 39.3812 49.3055C38.4024 49.5703 37.8338 49.7863 37.8338 49.7863C37.8338 49.7863 38.1763 50.289 38.8272 51.0664C40.5437 53.1163 44.4059 57.077 49.7933 58.7717C54.932 60.3881 60.1131 59.5198 62.8203 58.8304C62.9272 59.2028 63.0305 59.5716 63.1304 59.9352C63.8024 62.3814 64.3085 64.5731 64.6464 66.1528C64.8152 66.9424 64.9418 67.578 65.0262 68.0152C65.0683 68.2336 65.0998 68.4024 65.1207 68.516L65.1439 68.644L65.1495 68.6758L65.1509 68.6832C65.2571 69.288 65.8337 69.6939 66.4385 69.5877C67.0433 69.4817 67.4474 68.9053 67.3415 68.3005L66.2464 68.4926C67.3415 68.3005 67.3415 68.3007 67.3415 68.3005L67.339 68.287L67.3325 68.2512L67.3077 68.1142C67.2857 67.9947 67.253 67.8194 67.2096 67.5942C67.1228 67.144 66.9932 66.4933 66.8208 65.6878C66.4761 64.077 65.9604 61.8427 65.2746 59.3464C65.1794 59.0001 65.0809 58.648 64.979 58.2916C65.1837 58.0315 65.4236 57.7183 65.6895 57.3556C67.9829 54.2285 72.2251 47.4184 72.748 39.2435C73.2707 31.0688 69.9308 23.7738 68.0543 20.3799C67.3426 19.0928 66.8415 18.3668 66.8415 18.3668C66.8415 18.3668 66.252 19.0231 65.3822 20.2091C63.089 23.3362 58.8468 30.1463 58.3239 38.321C58.2204 39.9394 58.2683 41.5232 58.4263 43.0492C55.7495 39.2878 51.6986 35.4833 48.2691 32.5774C46.4 30.9939 44.6927 29.6583 43.4521 28.7182C43.0768 28.4338 42.744 28.1854 42.4623 27.9773C45.4285 27.9084 47.8117 25.4964 47.8117 22.5309C47.8117 19.5222 45.3585 17.0831 42.332 17.0831L39.6831 17.0832L41.5562 15.2101C43.6962 13.0701 43.7063 9.61064 41.5787 7.48315C39.4511 5.35564 35.9918 5.36574 33.8518 7.50572L31.9271 9.43055L31.9166 6.7087C31.9049 3.68236 29.4562 1.23842 26.4475 1.25004ZM37.8764 26.0193L37.8651 26.0085C38.2022 24.9087 38.3835 23.741 38.3835 22.5307C38.3835 21.3168 38.201 20.1454 37.862 19.0426L42.332 19.0425C44.27 19.0425 45.8409 20.6043 45.8409 22.5309C45.8409 24.4576 44.27 26.0193 42.332 26.0193H37.8764ZM37.0772 27.9789L40.2602 31.0931C41.6453 32.4485 41.6759 34.6634 40.3286 36.0406C38.9813 37.4176 36.7662 37.4354 35.3809 36.08L32.1834 32.9516C34.2644 31.8203 35.9686 30.084 37.0601 27.9789H37.0772ZM23.1764 33.9027C24.2399 34.2159 25.3656 34.3837 26.5305 34.3837C27.7939 34.3837 29.0109 34.1862 30.1528 33.8201L30.2045 38.2906C30.227 40.2283 28.6835 41.8173 26.7571 41.8396C24.8306 41.8618 23.2507 40.3091 23.2282 38.3714L23.1764 33.9027ZM21.0576 33.0474C18.9516 31.9492 17.2167 30.237 16.0905 28.1481L12.9515 31.3332C11.5912 32.7133 11.6008 34.9287 12.973 36.2809C14.3451 37.6334 16.5603 37.6107 17.9206 36.2305L21.0576 33.0474ZM15.1721 19.1318C14.8504 20.2085 14.6775 21.3495 14.6775 22.5307C14.6775 23.7777 14.87 24.9796 15.227 26.1084L10.7567 26.1431C8.81882 26.1579 7.23583 24.6084 7.22096 22.6817C7.20609 20.7552 8.76498 19.1813 10.7028 19.1664L15.1721 19.1318ZM16.0304 17.0264C17.1348 14.9241 18.852 13.1941 20.9447 12.0739L17.7724 8.92479C16.3972 7.55949 14.182 7.56107 12.8246 8.9283C11.4673 10.2956 11.4818 12.5108 12.857 13.8761L16.0304 17.0264ZM26.5305 10.6778C25.3001 10.6778 24.1135 10.8653 22.9977 11.2132L22.9803 6.74319C22.9729 4.80531 24.5286 3.22831 26.4551 3.22088C28.3818 3.21344 29.9496 4.77838 29.957 6.71626L29.9746 11.1859C28.8847 10.8555 27.7284 10.6778 26.5305 10.6778ZM32.0761 12.0525C34.1735 13.1648 35.897 14.8885 37.0094 16.986L40.1707 13.8246C41.5409 12.4543 41.5475 10.2391 40.1851 8.87675C38.8227 7.51442 36.6076 7.5209 35.2373 8.8912L32.0761 12.0525ZM36.1598 22.5307C36.1598 27.849 31.8486 32.1603 26.5305 32.1603C21.2124 32.1603 16.9011 27.849 16.9011 22.5307C16.9011 17.2126 21.2124 12.9014 26.5305 12.9014C31.8486 12.9014 36.1598 17.2126 36.1598 22.5307ZM70.5288 39.1017C70.1974 44.2835 68.2295 48.9383 66.2867 52.3482C65.8101 53.1847 65.3387 53.9394 64.9 54.6011C64.7146 54.8808 64.2999 54.8542 64.1516 54.5534C63.8006 53.841 63.4294 53.0324 63.0631 52.1421C61.5704 48.5124 60.2117 43.6447 60.5429 38.463C60.8743 33.2812 62.8424 28.6264 64.7852 25.2165C65.2618 24.38 65.7329 23.6253 66.1719 22.9636C66.3573 22.6839 66.772 22.7105 66.9203 23.0113C67.2713 23.7237 67.6425 24.5323 68.0086 25.4226C69.5012 29.0523 70.8602 33.9198 70.5288 39.1017ZM52.3234 50.7282C55.7384 51.8023 58.5314 53.8856 60.4947 55.7475C60.9103 56.1412 61.2856 56.5224 61.6188 56.8781C61.8483 57.1229 61.7237 57.5189 61.3954 57.5882C60.9186 57.689 60.3926 57.7867 59.8265 57.8717C57.1508 58.2742 53.6682 58.3834 50.2532 57.3092C46.8383 56.2348 44.0454 54.1516 42.0818 52.2899C41.6665 51.8962 41.2912 51.515 40.9577 51.1593C40.7285 50.9145 40.8529 50.5185 41.1812 50.4492C41.6582 50.3484 42.184 50.2507 42.7501 50.1655C45.4258 49.7632 48.9083 49.654 52.3234 50.7282Z" fill="black"/>
</svg>
