<svg width="77" height="71" viewBox="0 0 77 71" fill="none" xmlns="http://www.w3.org/2000/svg">
<mask id="mask0_216_135" style="mask-type:alpha" maskUnits="userSpaceOnUse" x="0" y="-6" width="77" height="77">
<rect y="-6" width="77" height="77" fill="#DD6868"/>
</mask>
<g mask="url(#mask0_216_135)">
<path d="M13.1779 57H63.8222C69.2226 57 72 54.3861 72 49.3569V21.8935C72 16.8643 69.2226 14.2686 63.8222 14.2686H55.6985C53.4551 14.2686 52.8324 13.9719 51.4893 12.5673L49.184 10.1251C47.754 8.64658 46.4681 8 43.7052 8H32.8854C30.1141 8 28.8368 8.64658 27.3981 10.1251L25.0927 12.5673C23.7754 13.9295 23.0991 14.2686 20.8922 14.2686H13.1779C7.76674 14.2686 5 16.8643 5 21.8935V49.3569C5 54.3861 7.76674 57 13.1779 57ZM13.242 53.7631C10.1964 53.7631 8.43451 52.2151 8.43451 49.1963V22.0721C8.43451 19.0532 10.1964 17.5054 13.242 17.5054H21.6235C24.1375 17.5054 25.4109 17.142 26.8409 15.6292L29.1167 13.2312C30.6894 11.566 31.513 11.2368 33.7995 11.2368H42.7911C45.0691 11.2368 45.9015 11.566 47.4742 13.2312L49.741 15.6292C51.18 17.142 52.4447 17.5054 54.9585 17.5054H63.7389C66.8035 17.5054 68.5741 19.0532 68.5741 22.0721V49.1963C68.5741 52.2151 66.8035 53.7631 63.7389 53.7631H13.242ZM38.5 49.5687C46.9297 49.5687 53.7313 43.1927 53.7313 35.1698C53.7313 27.165 46.9746 20.7892 38.5 20.7892C30.0511 20.7892 23.258 27.165 23.258 35.1698C23.258 43.1927 30.0511 49.5687 38.5 49.5687ZM38.5 46.4536C31.9123 46.4536 26.5528 41.4405 26.5528 35.1698C26.5528 28.9172 31.9018 23.8862 38.5 23.8862C45.1069 23.8862 50.4365 28.9172 50.4365 35.1698C50.4365 41.4405 45.1069 46.4536 38.5 46.4536ZM55.0664 25.6053C55.0664 27.3949 56.6242 28.768 58.4501 28.768C60.2317 28.768 61.77 27.3443 61.77 25.6053C61.77 23.9526 60.2317 22.4686 58.4501 22.4686C56.6242 22.4686 55.0664 23.9526 55.0664 25.6053Z" fill="black"/>
</g>
</svg>
