<?xml version="1.0" encoding="UTF-8"?>
<svg width="56px" height="73px" viewBox="0 0 56 73" version="1.1" xmlns="http://www.w3.org/2000/svg" xmlns:xlink="http://www.w3.org/1999/xlink">
    <title>aquabox</title>
    <g id="web" stroke="none" stroke-width="1" fill="none" fill-rule="evenodd">
        <g id="главная" transform="translate(-1386.000000, -2144.000000)">
            <g id="icons-new" transform="translate(0.000000, 2102.000000)">
                <g id="Group-8" transform="translate(438.000000, 42.000000)">
                    <g id="упаковка" transform="translate(906.000000, 0.000000)">
                        <g id="aquabox" transform="translate(42.000000, 0.000000)">
                            <path d="M55.1433489,9.05069782 C55.4871952,8.40979808 55.2460513,7.61159855 54.6053837,7.26795439 C51.8034502,5.76557403 48.5542155,5.92723803 45.9911687,7.41069426 C45.8083357,4.45472996 44.1451579,1.65869902 41.3436006,0.156311143 C41.0358695,-0.00872759457 40.6750942,-0.0447361148 40.3406529,0.0561975997 C40.0065878,0.157131314 39.725943,0.386741594 39.5607914,0.694520198 L36.4921325,6.41809914 L36.4921325,1.31693599 C36.4921325,0.589685028 35.902628,0 35.1754344,0 C31.9961729,0 29.2092874,1.67818749 27.6514454,4.19686516 C26.0934154,1.67818749 23.3063042,0 20.1273059,0 C19.4001124,0 18.8106079,0.589685028 18.8106079,1.31693599 L18.8106079,7.52397569 L15.7388265,1.79489257 C15.5737878,1.4871403 15.2932559,1.25751497 14.958965,1.15658126 C14.6246742,1.05564754 14.2639366,1.09165983 13.9562054,1.2566948 C11.1545352,2.75908268 9.49120698,5.55511362 9.30841167,8.51107792 C6.74528957,7.02762169 3.49613016,6.86595769 0.69445999,8.36833805 C0.38672884,8.53335045 0.157134315,8.81390163 0.0562000026,9.14825303 C-0.04473431,9.4825668 -0.00873202256,9.84329159 0.156306676,10.1510815 L3.48868141,16.3661724 L6.56430002,16.3661724 C6.36852582,16.1084957 6.190433,15.8321206 6.03265495,15.5378748 L3.16545084,10.1903594 C5.91467881,9.40130214 8.93619993,10.6033042 10.3427344,13.2265725 C10.6863926,13.8675099 11.4844998,14.1084446 12.1253555,13.7648004 C12.7662113,13.4211186 13.007167,12.6229567 12.6635465,11.982057 C11.2569743,9.35878869 11.9278508,6.17671301 14.1063842,4.32323923 L16.9735883,9.67075468 C18.1594066,11.8823949 17.8686421,14.4911785 16.4427333,16.3661724 L19.5042444,16.3661724 C19.5288102,16.3138018 19.5528494,16.2612055 19.5763995,16.2083835 C19.6000248,16.2612808 19.6241392,16.3138395 19.6487802,16.3661724 L22.7136772,16.3661724 C21.9171125,15.3222601 21.444004,14.0182257 21.444004,12.603694 L21.444004,2.7736426 C24.2397679,3.3775594 26.3345969,5.86482226 26.3345969,8.84144132 C26.3345969,9.56868476 26.9241014,10.1582298 27.6514454,10.1582298 C28.378639,10.1582298 28.9681435,9.56868476 28.9681435,8.84144132 C28.9681435,5.86482226 31.0628221,3.3775594 33.8587364,2.7736426 L33.8587364,12.603694 C33.8587364,14.0182257 33.3854775,15.3222601 32.5890632,16.3661724 L35.6539601,16.3661724 C35.7694534,16.1206854 35.8740368,15.8690659 35.9669581,15.6118784 C36.1020137,15.869856 36.2502363,16.1216636 36.4108734,16.3661724 L39.9358623,16.3661724 C37.6252453,14.5357612 36.8841324,11.2594787 38.3261048,8.57037102 L41.1931209,3.22285557 C43.3716919,5.07632935 44.0428317,8.25840503 42.636222,10.8816733 C42.2923757,11.5225731 42.5335195,12.320735 43.1741872,12.6644167 C43.815231,13.0080609 44.6131501,12.7670886 44.9569964,12.1261889 C46.3636061,9.50292059 49.3848639,8.30091848 52.1341295,9.08997574 L49.2671135,14.4374912 C48.8540465,15.2076995 48.3017857,15.855409 47.6581084,16.3661724 L51.1808401,16.3661724 C51.3253007,16.146344 51.4611087,15.9182386 51.5878879,15.6820067 L55.1433489,9.05069782 Z" id="Path" fill="#000000"></path>
                            <g id="Group-5" transform="translate(1.315227, 16.366172)" fill="#000000">
                                <path d="M0,0 L10.2392838,56.4338276 L42.6636511,56.4338276 L52.9030477,0 L0,0 Z M4.05543008,3.3860274 L13.0660088,53.0478002 L39.8368884,53.0478002 L48.8476177,3.3860274 L4.05543008,3.3860274 Z" id="Shape"></path>
                            </g>
                            <path d="M20.0723056,30.8769176 L20.0723056,45.6760394 C20.0723056,49.9251276 23.5166373,53.3698461 27.7654339,53.3698461 C32.0142305,53.3698461 35.4587126,49.9251276 35.4587126,45.6760394 L35.4587126,30.8769176 L38.8445077,30.8769176 L38.8445077,45.6760394 C38.8445077,51.7953434 33.8843179,56.7558735 27.7654339,56.7558735 C21.6467003,56.7558735 16.6865105,51.7953434 16.6865105,45.6760394 L16.6865105,30.8769176 L20.0723056,30.8769176 Z" id="Path" fill="#000000"></path>
                            <rect id="Rectangle" stroke="#000000" stroke-width="2.63424" x="35.0569316" y="27.358647" width="4.42034354" height="4.42064688" rx="2.21017177"></rect>
                            <rect id="Rectangle" stroke="#000000" stroke-width="2.63424" x="16.2838643" y="25.358647" width="4.42034354" height="4.42064688" rx="2.21017177"></rect>
                        </g>
                    </g>
                </g>
            </g>
        </g>
    </g>
</svg>