<svg width="77" height="72" viewBox="0 0 77 72" fill="none" xmlns="http://www.w3.org/2000/svg">
<mask id="mask0_216_136" style="mask-type:alpha" maskUnits="userSpaceOnUse" x="0" y="-5" width="77" height="77">
<rect y="-5" width="77" height="77" fill="#DD6868"/>
</mask>
<g mask="url(#mask0_216_136)">
</g>
<g clip-path="url(#clip0_216_136)">
<path fill-rule="evenodd" clip-rule="evenodd" d="M64.3907 12.2812H13.6094C9.45862 12.2812 6.09375 15.6461 6.09375 19.7968V46.2032C6.09375 50.3538 9.4586 53.7188 13.6094 53.7188H64.3907C68.5413 53.7188 71.9062 50.3538 71.9062 46.2032V19.7968C71.9062 15.6461 68.5413 12.2812 64.3907 12.2812ZM13.6094 8.625C7.43932 8.625 2.4375 13.6268 2.4375 19.7968V46.2032C2.4375 52.3733 7.43932 57.375 13.6094 57.375H64.3907C70.5608 57.375 75.5625 52.3733 75.5625 46.2032V19.7968C75.5625 13.6268 70.5608 8.625 64.3907 8.625H13.6094Z" fill="black"/>
<path fill-rule="evenodd" clip-rule="evenodd" d="M39 19.3499C39.8075 19.3499 40.4625 20.0046 40.4625 20.8124V48.2342C40.4625 49.042 39.8075 49.6967 39 49.6967C38.1922 49.6967 37.5375 49.042 37.5375 48.2342V20.8124C37.5375 20.0046 38.1922 19.3499 39 19.3499Z" fill="black"/>
<path fill-rule="evenodd" clip-rule="evenodd" d="M33.3531 38.0775C33.3531 38.8853 32.6984 39.54 31.8906 39.54H13.6095C12.8018 39.54 12.147 38.8853 12.147 38.0775C12.147 37.2697 12.8018 36.615 13.6095 36.615H31.8906C32.6984 36.615 33.3531 37.2697 33.3531 38.0775Z" fill="black"/>
<path fill-rule="evenodd" clip-rule="evenodd" d="M33.3531 43.1561C33.3531 43.9639 32.6984 44.6186 31.8906 44.6186H13.6095C12.8018 44.6186 12.147 43.9639 12.147 43.1561C12.147 42.3483 12.8018 41.6936 13.6095 41.6936H31.8906C32.6984 41.6936 33.3531 42.3483 33.3531 43.1561Z" fill="black"/>
<path fill-rule="evenodd" clip-rule="evenodd" d="M33.16 48.2341C33.16 48.9353 32.5915 49.5037 31.8905 49.5037H13.6092C12.9081 49.5037 12.3397 48.9353 12.3397 48.2341C12.3397 47.533 12.9081 46.9646 13.6092 46.9646H31.8905C32.5915 46.9646 33.16 47.533 33.16 48.2341Z" fill="black"/>
<path fill-rule="evenodd" clip-rule="evenodd" d="M57.808 18.8363C57.5972 18.8363 57.3868 18.8548 57.1791 18.8919L56.8086 18.9582C56.3884 19.0827 56.0152 19.3306 55.7371 19.6694C55.4592 20.0085 55.3035 20.36 55.2486 20.8594C55.194 21.3586 55.2323 21.7491 55.468 22.1269C55.9457 23.0366 56.5717 23.8605 57.3205 24.5644C57.867 25.117 58.4554 25.525 59.0616 26.0113C59.2222 26.121 59.3846 26.2438 59.5498 26.3647C59.9969 26.6914 60.5945 26.6911 61.0255 26.3438C61.7229 25.7817 62.5316 25.0931 63.2224 24.4594C64.0253 23.7625 64.7054 23.0685 65.2424 22.1513C65.4098 21.8817 65.4469 21.6114 65.4617 21.2494C65.489 20.5835 65.2982 20.0801 64.9111 19.6341C64.5243 19.1878 63.9783 18.9104 63.3899 18.8607C63.0515 18.797 62.7044 18.797 62.3661 18.8607C61.7258 19.0564 61.1683 19.4593 60.7817 20.0063C60.6879 20.1235 60.5658 20.2069 60.4644 20.262C60.3435 20.3275 60.1967 20.3244 60.0805 20.2508C59.9325 20.1574 59.6841 19.7352 59.5606 19.6117C59.532 19.5834 59.5003 19.5524 59.4655 19.5188C59.0197 19.0888 58.4271 18.8448 57.808 18.8363ZM57.2961 17.8368C56.4896 17.9029 55.7312 18.2477 55.1511 18.8119C54.7041 19.2675 54.4126 19.7501 54.2736 20.4694C54.1191 21.2694 54.3743 22.0916 54.7404 22.8194C55.223 23.779 55.8914 24.638 56.7111 25.3444C57.6849 26.3006 58.7835 27.1206 59.9774 27.7819C60.0771 27.826 60.185 27.8489 60.2942 27.8489C60.4034 27.8489 60.5114 27.826 60.6111 27.7819C61.7787 27.1031 62.8592 26.2846 63.8286 25.3444C64.7047 24.5829 65.4288 23.6657 65.9658 22.642C66.2003 22.1947 66.319 21.7047 66.2905 21.2007C66.2622 20.7005 66.2456 20.338 66.0955 19.9332C65.9122 19.3959 65.5904 18.917 65.1622 18.5445C64.7342 18.1722 64.2152 17.9196 63.658 17.8124C63.2297 17.7494 62.7944 17.7494 62.3661 17.8124C61.65 17.9572 60.9902 18.304 60.4649 18.8119L60.4078 18.877C60.3464 18.9472 60.2384 18.9508 60.1724 18.885C59.6724 18.3771 59.0384 18.022 58.3442 17.8612C57.9969 17.8154 57.6454 17.8072 57.2961 17.8368Z" fill="black" stroke="black" stroke-width="0.5" stroke-miterlimit="10"/>
</g>
<defs>
<clipPath id="clip0_216_136">
<rect width="74" height="50" fill="white" transform="translate(2 8)"/>
</clipPath>
</defs>
</svg>
