<svg width="77" height="75" viewBox="0 0 77 75" fill="none" xmlns="http://www.w3.org/2000/svg">
<mask id="mask0_216_134" style="mask-type:alpha" maskUnits="userSpaceOnUse" x="0" y="-2" width="77" height="77">
<rect y="-2" width="77" height="77" fill="#DD6868"/>
</mask>
<g mask="url(#mask0_216_134)">
<path fill-rule="evenodd" clip-rule="evenodd" d="M66.1433 9.0507C66.4872 8.4098 66.2461 7.6116 65.6054 7.26795C62.8035 5.76557 59.5542 5.92724 56.9912 7.41069C56.8083 4.45473 55.1452 1.6587 52.3436 0.156311C52.0359 -0.0087276 51.6751 -0.0447361 51.3407 0.0561976C51.0066 0.157131 50.7259 0.386742 50.5608 0.69452L47.4921 6.4181V1.31694C47.4921 0.589685 46.9026 0.000140035 46.1754 0.000140035C42.9962 0.000140035 40.2093 1.67819 38.6514 4.19687C37.0934 1.67819 34.3063 0.000140035 31.1273 0.000140035C30.4001 0.000140035 29.8106 0.589685 29.8106 1.31694V7.52398L26.7388 1.79489C26.5738 1.48714 26.2933 1.25751 25.959 1.15658C25.6247 1.05565 25.2639 1.09166 24.9562 1.25669C22.1545 2.75908 20.4912 5.55511 20.3084 8.51108C17.7453 7.02762 14.4961 6.86596 11.6945 8.36834C11.3867 8.53335 11.1571 8.8139 11.0562 9.14825C10.9553 9.48257 10.9913 9.84329 11.1563 10.1511L14.4887 16.3662H17.5643C17.3685 16.1085 17.1904 15.8321 17.0327 15.5379L14.1655 10.1904C16.9147 9.4013 19.9362 10.6033 21.3427 13.2266C21.6864 13.8675 22.4845 14.1084 23.1254 13.7648C23.7662 13.4211 24.0072 12.623 23.6635 11.9821C22.257 9.35879 22.9279 6.17671 25.1064 4.32324L27.9736 9.67075C29.1594 11.8824 28.8686 14.4912 27.4427 16.3662H30.5042C30.5288 16.3138 30.5528 16.2612 30.5764 16.2084C30.6 16.2613 30.6241 16.3138 30.6488 16.3662H33.7137C32.9171 15.3223 32.444 14.0182 32.444 12.6037V2.77364C35.2398 3.37756 37.3346 5.86482 37.3346 8.84144C37.3346 9.56868 37.9241 10.1582 38.6514 10.1582C39.3786 10.1582 39.9681 9.56868 39.9681 8.84144C39.9681 5.86482 42.0628 3.37756 44.8587 2.77364V12.6037C44.8587 14.0182 44.3855 15.3223 43.5891 16.3662H46.654C46.7695 16.1207 46.874 15.8691 46.967 15.6119C47.102 15.8699 47.2502 16.1217 47.4109 16.3662H50.9359C48.6252 14.5358 47.8841 11.2595 49.3261 8.57037L52.1931 3.22286C54.3717 5.07633 55.0428 8.2584 53.6362 10.8817C53.2924 11.5226 53.5335 12.3207 54.1742 12.6644C54.8152 13.0081 55.6132 12.7671 55.957 12.1262C57.3636 9.50292 60.3849 8.30092 63.1341 9.08998L60.2671 14.4375C59.854 15.2077 59.3018 15.8554 58.6581 16.3662H62.1808C62.3253 16.1463 62.4611 15.9182 62.5879 15.682L66.1433 9.0507Z" fill="black"/>
<path fill-rule="evenodd" clip-rule="evenodd" d="M12.3152 16.3662L22.5545 72.8H54.9789L65.2183 16.3662H12.3152ZM16.3707 19.7522L25.3813 69.414H52.1521L61.1629 19.7522H16.3707Z" fill="black"/>
<path fill-rule="evenodd" clip-rule="evenodd" d="M31.0723 30.877V45.6761C31.0723 49.9252 34.5167 53.3699 38.7654 53.3699C43.0142 53.3699 46.4587 49.9252 46.4587 45.6761V30.877H49.8445V45.6761C49.8445 51.7954 44.8843 56.7559 38.7654 56.7559C32.6467 56.7559 27.6865 51.7954 27.6865 45.6761V30.877H31.0723Z" fill="black"/>
<rect x="46.0569" y="27.3586" width="4.42034" height="4.42065" rx="2.21017" stroke="black" stroke-width="2.63424"/>
<rect x="27.2839" y="25.3586" width="4.42034" height="4.42065" rx="2.21017" stroke="black" stroke-width="2.63424"/>
</g>
</svg>
