<svg width="292" height="185" viewBox="0 0 292 185" fill="none" xmlns="http://www.w3.org/2000/svg">
<rect width="292" height="185" rx="22" fill="url(#paint0_linear_0_513)"/>
<g clip-path="url(#clip0_0_513)">
<path d="M40.03 128.12C39.2767 128.12 38.65 127.87 38.15 127.37C37.65 126.857 37.4 126.233 37.4 125.5C37.4 124.76 37.65 124.14 38.15 123.64C38.65 123.133 39.2767 122.88 40.03 122.88C40.5233 122.88 40.9667 123 41.36 123.24C41.7533 123.473 42.04 123.79 42.22 124.19L41.68 124.5C41.5467 124.2 41.33 123.963 41.03 123.79C40.7367 123.61 40.4033 123.52 40.03 123.52C39.4767 123.52 39.01 123.713 38.63 124.1C38.25 124.48 38.06 124.947 38.06 125.5C38.06 126.047 38.25 126.517 38.63 126.91C39.01 127.29 39.4767 127.48 40.03 127.48C40.3967 127.48 40.7267 127.393 41.02 127.22C41.32 127.047 41.5533 126.807 41.72 126.5L42.27 126.82C42.0633 127.22 41.76 127.537 41.36 127.77C40.96 128.003 40.5167 128.12 40.03 128.12ZM44.5776 125.4L47.2576 128H46.3776L43.8776 125.59V128H43.2176V123H43.8776V125.21L46.2576 123H47.1576L44.5776 125.4ZM48.819 126.85L51.799 123H52.359V128H51.699V124.15L48.719 128H48.159V123H48.819V126.85ZM57.9547 123V127.36H58.6547V129.34H57.9947V128H53.9147V129.34H53.2547V127.36H53.8647C54.2047 126.907 54.3747 126.277 54.3747 125.47V123H57.9547ZM54.6647 127.36H57.2947V123.64H55.0347V125.47C55.0347 126.243 54.9114 126.873 54.6647 127.36ZM61.0131 125.4L63.6931 128H62.8131L60.3131 125.59V128H59.6531V123H60.3131V125.21L62.6931 123H63.5931L61.0131 125.4ZM68.3965 123.98V123H69.0565V128H68.3965V127.02C67.9365 127.753 67.2632 128.12 66.3765 128.12C65.6632 128.12 65.0532 127.867 64.5465 127.36C64.0465 126.853 63.7965 126.233 63.7965 125.5C63.7965 124.767 64.0465 124.147 64.5465 123.64C65.0532 123.133 65.6632 122.88 66.3765 122.88C67.2632 122.88 67.9365 123.247 68.3965 123.98ZM65.0265 126.91C65.4065 127.29 65.8732 127.48 66.4265 127.48C66.9798 127.48 67.4465 127.29 67.8265 126.91C68.2065 126.517 68.3965 126.047 68.3965 125.5C68.3965 124.947 68.2065 124.48 67.8265 124.1C67.4465 123.713 66.9798 123.52 66.4265 123.52C65.8732 123.52 65.4065 123.713 65.0265 124.1C64.6465 124.48 64.4565 124.947 64.4565 125.5C64.4565 126.047 64.6465 126.517 65.0265 126.91Z" fill="black"/>
<path d="M37.375 140.1L42 138.5H43.5V156H41.75V140.425L37.825 141.6L37.375 140.1ZM49.1711 145.55H52.1211C53.7711 145.55 55.1544 146.033 56.2711 147C57.4211 147.95 57.9961 149.258 57.9961 150.925C57.9961 152.575 57.4211 153.892 56.2711 154.875C55.1544 155.825 53.7711 156.3 52.1211 156.3C50.7711 156.3 49.5794 155.975 48.5461 155.325C47.5294 154.658 46.8461 153.742 46.4961 152.575L47.9711 151.725C48.2211 152.642 48.7128 153.35 49.4461 153.85C50.1794 154.35 51.0711 154.6 52.1211 154.6C53.3544 154.6 54.3461 154.275 55.0961 153.625C55.8628 152.958 56.2461 152.058 56.2461 150.925C56.2461 149.792 55.8628 148.9 55.0961 148.25C54.3461 147.583 53.3544 147.25 52.1211 147.25H47.3711L47.9961 138.5H57.3711V140.15H49.5461L49.1711 145.55ZM63.8338 145.7C62.7338 145.7 61.8255 145.342 61.1088 144.625C60.3755 143.892 60.0088 143 60.0088 141.95C60.0088 140.917 60.3755 140.033 61.1088 139.3C61.8421 138.567 62.7505 138.2 63.8338 138.2C64.9171 138.2 65.8255 138.567 66.5588 139.3C67.2921 140.033 67.6588 140.917 67.6588 141.95C67.6588 143.017 67.3005 143.908 66.5838 144.625C65.8671 145.342 64.9505 145.7 63.8338 145.7ZM61.6088 141.95C61.6088 142.583 61.8171 143.117 62.2338 143.55C62.6505 143.983 63.1838 144.2 63.8338 144.2C64.4838 144.2 65.0171 143.983 65.4338 143.55C65.8505 143.117 66.0588 142.583 66.0588 141.95C66.0588 141.317 65.8505 140.783 65.4338 140.35C65.0171 139.917 64.4838 139.7 63.8338 139.7C63.1838 139.7 62.6505 139.917 62.2338 140.35C61.8171 140.783 61.6088 141.317 61.6088 141.95ZM61.9338 154.225L60.8838 153.625L72.6088 140.45L73.6838 141.05L61.9338 154.225ZM73.6338 155.225C72.9171 155.942 72.0088 156.3 70.9088 156.3C69.8088 156.3 68.9005 155.942 68.1838 155.225C67.4505 154.492 67.0838 153.6 67.0838 152.55C67.0838 151.517 67.4505 150.633 68.1838 149.9C68.9171 149.167 69.8255 148.8 70.9088 148.8C71.9921 148.8 72.9005 149.167 73.6338 149.9C74.3671 150.633 74.7338 151.517 74.7338 152.55C74.7338 153.6 74.3671 154.492 73.6338 155.225ZM68.6838 152.55C68.6838 153.183 68.8921 153.717 69.3088 154.15C69.7255 154.583 70.2588 154.8 70.9088 154.8C71.5588 154.8 72.0921 154.583 72.5088 154.15C72.9255 153.717 73.1338 153.183 73.1338 152.55C73.1338 151.917 72.9255 151.383 72.5088 150.95C72.0921 150.517 71.5588 150.3 70.9088 150.3C70.2588 150.3 69.7255 150.517 69.3088 150.95C68.8921 151.383 68.6838 151.917 68.6838 152.55Z" fill="white"/>
</g>
<g clip-path="url(#clip1_0_513)">
<path d="M138.198 128.12C137.445 128.12 136.818 127.87 136.318 127.37C135.818 126.857 135.568 126.233 135.568 125.5C135.568 124.76 135.818 124.14 136.318 123.64C136.818 123.133 137.445 122.88 138.198 122.88C138.691 122.88 139.135 123 139.528 123.24C139.921 123.473 140.208 123.79 140.388 124.19L139.848 124.5C139.715 124.2 139.498 123.963 139.198 123.79C138.905 123.61 138.571 123.52 138.198 123.52C137.645 123.52 137.178 123.713 136.798 124.1C136.418 124.48 136.228 124.947 136.228 125.5C136.228 126.047 136.418 126.517 136.798 126.91C137.178 127.29 137.645 127.48 138.198 127.48C138.565 127.48 138.895 127.393 139.188 127.22C139.488 127.047 139.721 126.807 139.888 126.5L140.438 126.82C140.231 127.22 139.928 127.537 139.528 127.77C139.128 128.003 138.685 128.12 138.198 128.12ZM143.17 127.19L144.79 123H145.49L143.35 128.46C143.15 128.967 142.87 129.357 142.51 129.63C142.157 129.91 141.764 130.033 141.33 130V129.38C141.93 129.453 142.387 129.107 142.7 128.34L142.83 128.03L140.59 123H141.29L143.17 127.19ZM150.428 123H151.188V128H150.528V124.01L148.778 126.85H148.698L146.948 124.01V128H146.288V123H147.048L148.738 125.74L150.428 123ZM156.727 123H157.487V128H156.827V124.01L155.077 126.85H154.997L153.247 124.01V128H152.587V123H153.347L155.037 125.74L156.727 123ZM163.186 123.98V123H163.846V128H163.186V127.02C162.726 127.753 162.052 128.12 161.166 128.12C160.452 128.12 159.842 127.867 159.336 127.36C158.836 126.853 158.586 126.233 158.586 125.5C158.586 124.767 158.836 124.147 159.336 123.64C159.842 123.133 160.452 122.88 161.166 122.88C162.052 122.88 162.726 123.247 163.186 123.98ZM159.816 126.91C160.196 127.29 160.662 127.48 161.216 127.48C161.769 127.48 162.236 127.29 162.616 126.91C162.996 126.517 163.186 126.047 163.186 125.5C163.186 124.947 162.996 124.48 162.616 124.1C162.236 123.713 161.769 123.52 161.216 123.52C160.662 123.52 160.196 123.713 159.816 124.1C159.436 124.48 159.246 124.947 159.246 125.5C159.246 126.047 159.436 126.517 159.816 126.91ZM171.283 125.18V123H171.943V128H171.283V125.82H168.403V128H167.743V123H168.403V125.18H171.283ZM177.639 123.98V123H178.299V128H177.639V127.02C177.179 127.753 176.505 128.12 175.619 128.12C174.905 128.12 174.295 127.867 173.789 127.36C173.289 126.853 173.039 126.233 173.039 125.5C173.039 124.767 173.289 124.147 173.789 123.64C174.295 123.133 174.905 122.88 175.619 122.88C176.505 122.88 177.179 123.247 177.639 123.98ZM174.269 126.91C174.649 127.29 175.115 127.48 175.669 127.48C176.222 127.48 176.689 127.29 177.069 126.91C177.449 126.517 177.639 126.047 177.639 125.5C177.639 124.947 177.449 124.48 177.069 124.1C176.689 123.713 176.222 123.52 175.669 123.52C175.115 123.52 174.649 123.713 174.269 124.1C173.889 124.48 173.699 124.947 173.699 125.5C173.699 126.047 173.889 126.517 174.269 126.91ZM181.056 125.4L183.736 128H182.856L180.356 125.59V128H179.696V123H180.356V125.21L182.736 123H183.636L181.056 125.4ZM188.329 127.37C187.816 127.87 187.196 128.12 186.469 128.12C185.729 128.12 185.106 127.87 184.599 127.37C184.093 126.863 183.839 126.24 183.839 125.5C183.839 124.76 184.093 124.14 184.599 123.64C185.106 123.133 185.729 122.88 186.469 122.88C187.203 122.88 187.823 123.133 188.329 123.64C188.843 124.14 189.099 124.76 189.099 125.5C189.099 126.233 188.843 126.857 188.329 127.37ZM185.069 126.91C185.449 127.29 185.916 127.48 186.469 127.48C187.023 127.48 187.489 127.29 187.869 126.91C188.249 126.517 188.439 126.047 188.439 125.5C188.439 124.947 188.249 124.48 187.869 124.1C187.489 123.713 187.023 123.52 186.469 123.52C185.916 123.52 185.449 123.713 185.069 124.1C184.689 124.48 184.499 124.947 184.499 125.5C184.499 126.047 184.689 126.517 185.069 126.91ZM190.204 123H194.404V128H193.744V123.64H190.864V128H190.204V123ZM196.32 123H199.9V128H199.24V123.64H196.98V125.87C196.98 126.703 196.82 127.277 196.5 127.59C196.186 127.903 195.753 128.04 195.2 128V127.38C195.586 127.42 195.87 127.327 196.05 127.1C196.23 126.873 196.32 126.463 196.32 125.87V123ZM203.608 122.88C204.354 122.88 204.951 123.143 205.398 123.67C205.858 124.19 206.088 124.807 206.088 125.52C206.088 125.553 206.081 125.657 206.068 125.83H201.678C201.744 126.33 201.958 126.73 202.318 127.03C202.678 127.33 203.128 127.48 203.668 127.48C204.428 127.48 204.964 127.197 205.278 126.63L205.858 126.97C205.638 127.33 205.334 127.613 204.948 127.82C204.568 128.02 204.138 128.12 203.658 128.12C202.871 128.12 202.231 127.873 201.738 127.38C201.244 126.887 200.998 126.26 200.998 125.5C200.998 124.747 201.241 124.123 201.728 123.63C202.214 123.13 202.841 122.88 203.608 122.88ZM203.608 123.52C203.088 123.52 202.651 123.673 202.298 123.98C201.951 124.287 201.744 124.69 201.678 125.19H205.408C205.334 124.657 205.131 124.247 204.798 123.96C204.451 123.667 204.054 123.52 203.608 123.52ZM210.678 125.18V123H211.338V128H210.678V125.82H207.798V128H207.138V123H207.798V125.18H210.678ZM213.393 126.85L216.373 123H216.933V128H216.273V124.15L213.293 128H212.733V123H213.393V126.85ZM221.729 122.2H219.129V121.62H221.729V122.2ZM218.989 126.85L221.969 123H222.529V128H221.869V124.15L218.889 128H218.329V123H218.989V126.85Z" fill="black"/>
<path d="M134.875 140.1L139.5 138.5H141V156H139.25V140.425L135.325 141.6L134.875 140.1ZM146.671 145.55H149.621C151.271 145.55 152.654 146.033 153.771 147C154.921 147.95 155.496 149.258 155.496 150.925C155.496 152.575 154.921 153.892 153.771 154.875C152.654 155.825 151.271 156.3 149.621 156.3C148.271 156.3 147.079 155.975 146.046 155.325C145.029 154.658 144.346 153.742 143.996 152.575L145.471 151.725C145.721 152.642 146.213 153.35 146.946 153.85C147.679 154.35 148.571 154.6 149.621 154.6C150.854 154.6 151.846 154.275 152.596 153.625C153.363 152.958 153.746 152.058 153.746 150.925C153.746 149.792 153.363 148.9 152.596 148.25C151.846 147.583 150.854 147.25 149.621 147.25H144.871L145.496 138.5H154.871V140.15H147.046L146.671 145.55ZM163.122 144.75C164.822 144.75 166.23 145.292 167.347 146.375C168.447 147.458 168.997 148.842 168.997 150.525C168.997 152.242 168.447 153.633 167.347 154.7C166.264 155.767 164.855 156.3 163.122 156.3C161.389 156.3 159.98 155.767 158.897 154.7C157.797 153.633 157.247 152.242 157.247 150.525C157.247 149.208 157.605 148.042 158.322 147.025L164.047 138.5H166.022L161.722 144.9C162.172 144.8 162.639 144.75 163.122 144.75ZM160.122 153.475C160.905 154.225 161.905 154.6 163.122 154.6C164.355 154.6 165.347 154.225 166.097 153.475C166.864 152.725 167.247 151.742 167.247 150.525C167.247 149.308 166.864 148.325 166.097 147.575C165.347 146.825 164.355 146.45 163.122 146.45C161.905 146.45 160.905 146.825 160.122 147.575C159.372 148.325 158.997 149.308 158.997 150.525C158.997 151.742 159.372 152.725 160.122 153.475ZM188.754 153.85C187.604 155.483 185.979 156.3 183.879 156.3C181.796 156.3 180.162 155.483 178.979 153.85C177.829 152.2 177.254 150 177.254 147.25C177.254 144.483 177.829 142.292 178.979 140.675C180.162 139.025 181.796 138.2 183.879 138.2C185.979 138.2 187.604 139.025 188.754 140.675C189.921 142.292 190.504 144.483 190.504 147.25C190.504 150.017 189.921 152.217 188.754 153.85ZM180.279 152.675C181.162 153.958 182.362 154.6 183.879 154.6C185.412 154.6 186.604 153.958 187.454 152.675C188.321 151.408 188.754 149.6 188.754 147.25C188.754 144.9 188.321 143.092 187.454 141.825C186.604 140.542 185.412 139.9 183.879 139.9C182.362 139.9 181.162 140.542 180.279 141.825C179.429 143.108 179.004 144.917 179.004 147.25C179.004 149.583 179.429 151.392 180.279 152.675ZM204.501 153.85C203.351 155.483 201.726 156.3 199.626 156.3C197.543 156.3 195.909 155.483 194.726 153.85C193.576 152.2 193.001 150 193.001 147.25C193.001 144.483 193.576 142.292 194.726 140.675C195.909 139.025 197.543 138.2 199.626 138.2C201.726 138.2 203.351 139.025 204.501 140.675C205.668 142.292 206.251 144.483 206.251 147.25C206.251 150.017 205.668 152.217 204.501 153.85ZM196.026 152.675C196.909 153.958 198.109 154.6 199.626 154.6C201.159 154.6 202.351 153.958 203.201 152.675C204.068 151.408 204.501 149.6 204.501 147.25C204.501 144.9 204.068 143.092 203.201 141.825C202.351 140.542 201.159 139.9 199.626 139.9C198.109 139.9 196.909 140.542 196.026 141.825C195.176 143.108 194.751 144.917 194.751 147.25C194.751 149.583 195.176 151.392 196.026 152.675ZM220.248 153.85C219.098 155.483 217.473 156.3 215.373 156.3C213.29 156.3 211.656 155.483 210.473 153.85C209.323 152.2 208.748 150 208.748 147.25C208.748 144.483 209.323 142.292 210.473 140.675C211.656 139.025 213.29 138.2 215.373 138.2C217.473 138.2 219.098 139.025 220.248 140.675C221.415 142.292 221.998 144.483 221.998 147.25C221.998 150.017 221.415 152.217 220.248 153.85ZM211.773 152.675C212.656 153.958 213.856 154.6 215.373 154.6C216.906 154.6 218.098 153.958 218.948 152.675C219.815 151.408 220.248 149.6 220.248 147.25C220.248 144.9 219.815 143.092 218.948 141.825C218.098 140.542 216.906 139.9 215.373 139.9C213.856 139.9 212.656 140.542 211.773 141.825C210.923 143.108 210.498 144.917 210.498 147.25C210.498 149.583 210.923 151.392 211.773 152.675ZM231.695 143.2C233.478 143.2 234.995 143.833 236.245 145.1C237.512 146.367 238.145 147.917 238.145 149.75C238.145 151.583 237.512 153.133 236.245 154.4C234.995 155.667 233.478 156.3 231.695 156.3C229.478 156.3 227.795 155.383 226.645 153.55V161H224.995V143.5H226.645V145.95C227.795 144.117 229.478 143.2 231.695 143.2ZM228.07 153.275C229.02 154.225 230.187 154.7 231.57 154.7C232.953 154.7 234.12 154.225 235.07 153.275C236.02 152.292 236.495 151.117 236.495 149.75C236.495 148.367 236.02 147.2 235.07 146.25C234.12 145.283 232.953 144.8 231.57 144.8C230.187 144.8 229.02 145.283 228.07 146.25C227.12 147.2 226.645 148.367 226.645 149.75C226.645 151.117 227.12 152.292 228.07 153.275ZM242.388 154.875C242.388 155.258 242.254 155.583 241.988 155.85C241.721 156.117 241.396 156.25 241.013 156.25C240.629 156.25 240.304 156.117 240.038 155.85C239.771 155.583 239.638 155.258 239.638 154.875C239.638 154.492 239.771 154.167 240.038 153.9C240.304 153.633 240.629 153.5 241.013 153.5C241.396 153.5 241.721 153.633 241.988 153.9C242.254 154.167 242.388 154.492 242.388 154.875Z" fill="white"/>
</g>
<path fill-rule="evenodd" clip-rule="evenodd" d="M56.0083 46.2237C54.4636 46.2237 53.2109 47.4757 53.2109 49.0196C53.2109 50.5635 54.4636 51.8155 56.0083 51.8155C57.553 51.8155 58.8057 50.5635 58.8057 49.0196C58.8057 47.4757 57.553 46.2237 56.0083 46.2237" fill="white"/>
<path fill-rule="evenodd" clip-rule="evenodd" d="M69.8107 51.972C65.9559 53.6048 63.041 52.2796 63.041 52.2796C63.7851 53.082 64.3648 54.0226 64.7474 55.0475C65.0406 56.0294 65.1564 57.0561 65.0887 58.0783C64.0677 58.1426 63.0433 58.0274 62.0619 57.7372C61.0275 57.353 60.0775 56.772 59.2646 56.0261C59.2646 56.0261 60.5905 58.9394 58.9568 62.7978C58.3185 64.2936 57.3025 65.5981 56.0084 66.5834C54.7082 65.6054 53.6843 64.307 53.0376 62.8145C51.4039 58.9562 52.7299 56.0429 52.7299 56.0429C51.9169 56.7888 50.9669 57.3698 49.9325 57.754C48.9511 58.0436 47.9267 58.1594 46.9057 58.0951C46.838 57.0723 46.9538 56.0462 47.247 55.0643C47.6213 54.0416 48.1914 53.1016 48.9254 52.2964C48.9254 52.2964 46.0105 53.6216 42.1557 51.9888C40.6608 51.3402 39.36 50.3152 38.3792 49.014C39.3611 47.715 40.6619 46.6923 42.1557 46.0447C46.0105 44.4119 48.9254 45.7372 48.9254 45.7372C48.1886 44.9241 47.6179 43.9741 47.247 42.9413C46.9538 41.9594 46.838 40.9333 46.9057 39.9105C47.9267 39.8462 48.9511 39.962 49.9325 40.2516C50.9669 40.6358 51.9169 41.2168 52.7299 41.9627C52.7299 41.9627 51.4039 39.0438 53.0376 35.1911C53.6843 33.6986 54.7082 32.4002 56.0084 31.4222C57.3086 32.4002 58.3325 33.6986 58.9792 35.1911C60.6129 39.0438 59.2869 41.9627 59.2869 41.9627C60.0999 41.2168 61.0498 40.6358 62.0843 40.2516C63.0656 39.962 64.09 39.8462 65.1111 39.9105C65.1788 40.9333 65.063 41.9594 64.7698 42.9413C64.3905 43.9763 63.8109 44.9264 63.0634 45.7372C63.0634 45.7372 65.9783 44.4119 69.8325 46.0447C71.3269 46.6923 72.6282 47.715 73.609 49.014C72.621 50.3118 71.3118 51.3318 69.8107 51.972ZM56.0084 28L35 48.9972L56.0084 70L77 48.9972L56.0084 28V28Z" fill="white"/>
<defs>
<linearGradient id="paint0_linear_0_513" x1="518.574" y1="84.8751" x2="313.862" y2="-224.454" gradientUnits="userSpaceOnUse">
<stop stop-color="#F8F8F8"/>
<stop offset="1" stop-color="#C7C7C7"/>
<stop offset="1" stop-color="#B5B1B1"/>
</linearGradient>
<clipPath id="clip0_0_513">
<rect width="40" height="40" fill="white" transform="translate(37 119)"/>
</clipPath>
<clipPath id="clip1_0_513">
<rect width="110" height="40" fill="white" transform="translate(134.5 119)"/>
</clipPath>
</defs>
</svg>
