<?xml version="1.0" encoding="UTF-8"?>
<!--Generator: Apple Native CoreSVG 232.5-->
<!DOCTYPE svg
PUBLIC "-//W3C//DTD SVG 1.1//EN"
       "http://www.w3.org/Graphics/SVG/1.1/DTD/svg11.dtd">
<svg version="1.1" xmlns="http://www.w3.org/2000/svg" xmlns:xlink="http://www.w3.org/1999/xlink" width="16.1444" height="20.8196">
 <g>
  <rect height="20.8196" opacity="0" width="16.1444" x="0" y="0"/>
  <path d="M2.85121 20.8196L13.2864 20.8196C15.1807 20.8196 16.1444 19.8434 16.1444 17.9409L16.1444 8.7798C16.1444 7.72996 16.006 7.26462 15.3564 6.60119L9.6208 0.803249C8.99895 0.161991 8.4865 0.00967315 7.53367 0.00967315L2.85121 0.00967315C0.973544 0.00967315 0.000130397 0.985863 0.000130397 2.88846L0.000130397 17.9409C0.000130397 19.8504 0.96247 20.8196 2.85121 20.8196ZM2.91077 19.6117C1.7881 19.6117 1.20807 19.0178 1.20807 17.9159L1.20807 2.91338C1.20807 1.83915 1.7881 1.21761 2.9177 1.21761L7.48218 1.21761L7.48218 7.09468C7.48218 8.21357 8.04856 8.74123 9.12873 8.74123L14.9351 8.74123L14.9351 17.9159C14.9351 19.0178 14.3495 19.6117 13.2269 19.6117ZM9.25758 7.59564C8.80356 7.59564 8.62083 7.41291 8.62083 6.96442L8.62083 1.46554L14.6872 7.59564Z" fill="#000000" fill-opacity="0.85"/>
  <path d="M11.8421 11.8322L4.18184 11.8322C3.89374 11.8322 3.67766 12.0359 3.67766 12.3046C3.67766 12.5802 3.89374 12.7908 4.18184 12.7908L11.8421 12.7908C12.1233 12.7908 12.3324 12.5802 12.3324 12.3046C12.3324 12.0359 12.1233 11.8322 11.8421 11.8322ZM11.8421 15.2548L4.18184 15.2548C3.89374 15.2548 3.67766 15.4709 3.67766 15.741C3.67766 16.0097 3.89374 16.2133 4.18184 16.2133L11.8421 16.2133C12.1233 16.2133 12.3324 16.0097 12.3324 15.741C12.3324 15.4709 12.1233 15.2548 11.8421 15.2548Z" fill="#000000" fill-opacity="0.85"/>
 </g>
</svg>
