<?xml version="1.0" encoding="UTF-8"?>
<!--Generator: Apple Native CoreSVG 232.5-->
<!DOCTYPE svg
PUBLIC "-//W3C//DTD SVG 1.1//EN"
       "http://www.w3.org/Graphics/SVG/1.1/DTD/svg11.dtd">
<svg version="1.1" xmlns="http://www.w3.org/2000/svg" xmlns:xlink="http://www.w3.org/1999/xlink" width="15.8628" height="22.2087">
 <g>
  <rect height="22.2087" opacity="0" width="15.8628" x="0" y="0"/>
  <path d="M1.77526 20.2101L12.7577 22.1457C14.6685 22.4849 15.862 21.4381 15.862 19.3888L15.862 7.28372C15.862 5.4821 14.9231 4.73724 13.0441 4.41047L2.32901 2.52054C0.90975 2.26299 0 2.99694 0 4.35534L0 18.1468C0 19.3224 0.585774 20.001 1.77526 20.2101ZM2.04541 19.0215C1.48203 18.9177 1.20794 18.5965 1.20794 17.9902L1.20794 4.56036C1.20794 3.91813 1.63011 3.59839 2.33186 3.72434L12.9901 5.59901C14.1058 5.79421 14.6541 6.28282 14.6541 7.23253L14.6541 19.2765C14.6541 20.5044 13.908 21.1218 12.7479 20.9086ZM13.7818 5.43671L14.9897 5.43671L14.9897 3.10383C14.9897 1.2247 13.7227 0.317694 11.5874 0.704024L1.36534 2.50947L1.79619 3.56225L12.0072 1.83162C13.1201 1.64476 13.7818 2.10711 13.7818 3.07332ZM3.65028 8.01784L11.5195 9.40229C11.8796 9.46046 12.1096 9.2264 12.1096 8.91471C12.1096 8.61828 11.9544 8.4673 11.6788 8.41465L3.83317 7.03854C3.47856 6.97344 3.22785 7.19365 3.22785 7.51086C3.22785 7.78097 3.37744 7.97212 3.65028 8.01784ZM3.65028 11.7576L11.5195 13.1476C11.8796 13.2058 12.1096 12.9717 12.1096 12.6545C12.1096 12.3636 11.9544 12.2071 11.6788 12.1544L3.83317 10.7838C3.47856 10.7187 3.22785 10.939 3.22785 11.2506C3.22785 11.5263 3.37744 11.7119 3.65028 11.7576Z" fill="#000000" fill-opacity="0.85"/>
 </g>
</svg>
