<?xml version="1.0" encoding="UTF-8"?>
<!--Generator: Apple Native CoreSVG 232.5-->
<!DOCTYPE svg
PUBLIC "-//W3C//DTD SVG 1.1//EN"
       "http://www.w3.org/Graphics/SVG/1.1/DTD/svg11.dtd">
<svg version="1.1" xmlns="http://www.w3.org/2000/svg" xmlns:xlink="http://www.w3.org/1999/xlink" width="18.4981" height="20.6687">
 <g>
  <rect height="20.6687" opacity="0" width="18.4981" x="0" y="0"/>
  <path d="M4.07921 19.955L14.412 19.955C16.0765 19.955 17.0126 19.0397 17.0126 17.3821L17.0126 10.9433L17.1758 10.9433C18.0204 10.8241 18.4981 10.1788 18.4981 9.24417L18.4981 6.86935C18.4981 5.80304 17.9012 5.12172 16.828 5.12172L14.3823 5.12172C14.9997 4.61496 15.3498 3.87427 15.3498 2.98552C15.3498 1.22693 13.9997 0 12.2093 0C10.8178 0 9.71016 0.789139 9.24905 2.1238C8.78101 0.789139 7.68026 0 6.2819 0C4.49843 0 3.14133 1.22693 3.14133 2.98552C3.14133 3.87427 3.49845 4.61496 4.11581 5.12172L1.67011 5.12172C0.643958 5.12172 2.94705e-05 5.80304 2.94705e-05 6.86935L2.94705e-05 9.24417C2.94705e-05 10.1788 0.477688 10.8241 1.32228 10.9433L1.48413 10.9433L1.48413 17.3821C1.48413 19.0397 2.4216 19.955 4.07921 19.955ZM8.46525 18.8205L4.07642 18.8205C3.18352 18.8205 2.69345 18.3249 2.69345 17.4306L2.69345 10.9849L8.46525 10.9849ZM10.0384 18.8205L10.0384 10.9849L15.8046 10.9849L15.8046 17.4306C15.8046 18.3249 15.3146 18.8205 14.4148 18.8205ZM8.46525 9.84623L1.93479 9.84623C1.43775 9.84623 1.20797 9.59432 1.20797 9.09728L1.20797 7.0024C1.20797 6.50536 1.43775 6.26036 1.93479 6.26036L8.46525 6.26036ZM10.0384 9.84623L10.0384 6.26036L16.5702 6.26036C17.0673 6.26036 17.2887 6.50536 17.2887 7.0024L17.2887 9.09728C17.2887 9.59432 17.0673 9.84623 16.5702 9.84623ZM8.53309 5.12172L7.18424 5.12172C5.55756 5.12172 4.56224 4.22871 4.56224 3.04374C4.56224 2.01631 5.29889 1.40432 6.35118 1.40432C7.59852 1.40432 8.53309 2.37612 8.53309 3.91972ZM9.96361 5.12172L9.96361 3.91972C9.96361 2.37612 10.8982 1.40432 12.1469 1.40432C13.1923 1.40432 13.9414 2.01631 13.9414 3.04374C13.9414 4.22871 12.9405 5.12172 11.3194 5.12172Z" fill="#000000" fill-opacity="0.85"/>
 </g>
</svg>
