<?xml version="1.0" encoding="UTF-8"?>
<svg width="198px" height="33px" viewBox="0 0 198 33" version="1.1" xmlns="http://www.w3.org/2000/svg" xmlns:xlink="http://www.w3.org/1999/xlink">
    <title>logo_horiz</title>
    <g id="web" stroke="none" stroke-width="1" fill="none" fill-rule="evenodd">
        <g id="главная" transform="translate(-819.000000, -2742.000000)" fill-rule="nonzero">
            <g id="клиенты" transform="translate(270.000000, 2694.000000)">
                <g id="Group" transform="translate(0.000000, 45.000000)">
                    <g id="logo_horiz" transform="translate(549.062500, 3.000000)">
                        <path d="M40.3548799,27.71875 C42.5461196,27.71875 44.3511863,26.9832516 45.4950778,25.9131944 C45.775421,25.6616374 46.206172,25.6105968 46.5482772,25.7883987 L50.535807,27.8674428 C50.6861121,27.9438387 50.7916857,28.0764684 50.8243856,28.2299775 C50.8570856,28.3834866 50.8135885,28.5422735 50.7054891,28.6640114 C48.3650461,31.4281046 44.7724661,33 40.2612621,33 C31.9058805,33 26.6340326,27.8090278 26.6340326,21.0833333 C26.6340326,14.3576389 31.955615,9.16666667 39.7697691,9.16666667 C47.1304624,9.16666667 52.3496503,14.4479167 52.3496503,21.0833333 C52.3480932,21.7323345 52.292348,22.3802955 52.1828938,23.0216503 C52.1404632,23.2845325 51.8905039,23.4785002 51.597783,23.4756944 L33.751905,23.4756944 C33.6560717,23.4748602 33.5658649,23.5166798 33.5104367,23.5876386 C33.4550085,23.6585973 33.4413881,23.7496963 33.4739774,23.8314951 C34.4657401,26.5557598 37.1162918,27.71875 40.3548799,27.71875 Z M45.5506634,18.9564951 C45.6421086,18.9589307 45.7295443,18.9224018 45.786974,18.8577691 C45.8444037,18.7931365 45.8652144,18.7078424 45.8432187,18.6272467 C44.9655526,15.6188725 42.3588842,14.3974673 39.763918,14.3974673 C36.4668189,14.3974673 34.1790358,15.9401552 33.3423274,18.6245915 C33.3192428,18.7055608 33.3395409,18.7916692 33.3971072,18.8569781 C33.4546734,18.9222869 33.5427787,18.9591619 33.6348828,18.9564951 L45.5506634,18.9564951 Z" id="Shape" fill="#0068FF"></path>
                        <path d="M63.2031323,15.3959207 L63.2031323,25.2220935 C63.2031323,27.521949 64.9440639,27.6919153 68.2604057,27.5538177 C68.4222435,27.546538 68.5803123,27.5992671 68.697652,27.699676 C68.8149917,27.8000848 68.881314,27.9393695 68.8811189,28.0849622 L68.8811189,32.334118 C68.8826384,32.6079113 68.6522786,32.8378862 68.3490779,32.8652625 C59.66511,33.6221434 56.7211917,31.205436 56.7211917,25.2300606 L56.7211917,15.3959207 L52.9407986,15.3959207 C52.6143164,15.3959207 52.3496503,15.1581192 52.3496503,14.8647762 L52.3496503,10.3500481 C52.3496503,10.0567051 52.6143164,9.81890365 52.9407986,9.81890365 L56.7211917,9.81890365 L56.7211917,5.83532008 C56.7213323,5.48440563 56.9769906,5.17489293 57.3507646,5.07312776 L62.4405511,3.6894964 C62.6194605,3.64078543 62.8134705,3.67098116 62.9637209,3.7709226 C63.1139713,3.87086404 63.2027536,4.02877205 63.2031323,4.19673937 L63.2031323,9.81890365 L68.2899631,9.81890365 C68.6164452,9.81890365 68.8811189,10.0567051 68.8811189,10.3500481 L68.8811189,14.8647762 C68.8811189,15.1581192 68.6164452,15.3959207 68.2899631,15.3959207 L63.2031323,15.3959207 Z" id="Path" fill="#0068FF"></path>
                        <path d="M95.5151515,10.3418856 L95.5151515,31.8300868 C95.5151515,32.1231141 95.2529313,32.3606597 94.9294664,32.3606597 L89.6787989,32.3606597 C89.3553339,32.3606597 89.0931137,32.1231141 89.0931137,31.8300868 L89.0931137,29.7077953 C87.3009172,31.7372366 84.6126223,33 80.9784459,33 C74.3572751,33 68.8811189,27.8136502 68.8811189,21.0939448 C68.8811189,14.3742394 74.3572751,9.16666667 80.9843027,9.16666667 C84.6184791,9.16666667 87.306774,10.4294301 89.0989706,12.4588713 L89.0989706,10.3418856 C89.0989706,10.0488583 89.3611908,9.8113127 89.6846558,9.8113127 L94.9353232,9.8113127 C95.2564986,9.81422238 95.5151515,10.0509178 95.5151515,10.3418856 Z M89.0931137,21.0859862 C89.0931137,17.2976959 86.1646879,14.7191118 82.1732436,14.7191118 C78.2403677,14.7191118 75.3031567,17.2897373 75.3031567,21.0859862 C75.3031567,24.8822351 78.2315825,27.4528606 82.1732436,27.4528606 C86.1559027,27.4316377 89.0931137,24.8610122 89.0931137,21.0727219 L89.0931137,21.0859862 Z" id="Shape" fill="#0068FF"></path>
                        <path d="M97.3534937,3.7581236 C97.3129166,2.42769299 98.0913532,1.18265618 99.3862917,0.50685265 C100.68123,-0.168950883 102.288467,-0.168950883 103.583405,0.50685265 C104.878344,1.18265618 105.65678,2.42769299 105.616203,3.7581236 C105.55576,5.73992341 103.723911,7.31867943 101.484848,7.31867943 C99.2457864,7.31867943 97.4139372,5.73992341 97.3534937,3.7581236 L97.3534937,3.7581236 Z M98.7843312,9.41249692 L104.188378,9.41249692 C104.521106,9.41249692 104.790836,9.65132231 104.790836,9.94592836 L104.790836,31.5499019 C104.790836,31.8445079 104.521106,32.0833333 104.188378,32.0833333 L98.7843312,32.0833333 C98.4516029,32.0833333 98.1818733,31.8445079 98.1818733,31.5499019 L98.1818733,9.94592836 C98.1818733,9.65132231 98.4516029,9.41249692 98.7843312,9.41249692 Z" id="Shape" fill="#0068FF"></path>
                        <path d="M108.041124,0 L113.296871,0 C113.61408,0 113.873934,0.229759585 113.88345,0.518940079 L113.88345,31.5643933 C113.873934,31.8535737 113.61408,32.0833333 113.296871,32.0833333 L108.041124,32.0833333 C107.723915,32.0833333 107.464062,31.8535737 107.454545,31.5643933 L107.454545,0.518940079 C107.464062,0.229759585 107.723915,0 108.041124,0 Z" id="Path" fill="#0068FF"></path>
                        <path d="M116.638695,21.0882894 C116.638695,14.3597978 122.137302,9.16666667 129.626983,9.16666667 C134.225555,9.16666667 138.245326,11.2917331 140.355055,14.5191778 C140.43704,14.6412644 140.461767,14.7885893 140.423615,14.9276638 C140.385463,15.0667383 140.287673,15.1857472 140.152474,15.2576384 L135.933017,17.5155215 C135.539486,17.7285647 135.033405,17.6252093 134.775416,17.2791078 C133.678588,15.8021866 131.777228,14.8884081 129.566209,14.8884081 C125.777958,14.8884081 122.973669,17.4623948 122.973669,21.0750077 C122.973669,24.642463 125.777958,27.2164498 129.566209,27.2164498 C131.820638,27.2164498 133.73068,26.3398599 134.824614,24.865595 C135.08065,24.5261265 135.576764,24.4223712 135.967745,24.626525 L140.224825,26.8605011 C140.362475,26.9323588 140.462038,27.0528445 140.500316,27.1938844 C140.538594,27.3349243 140.512244,27.4842005 140.427405,27.6069307 C138.084295,31.003364 133.992034,33.0437849 129.612513,32.9992868 C122.148878,33.0099122 116.638695,27.816781 116.638695,21.0882894 Z" id="Path" fill="#000000"></path>
                        <path d="M157.048951,9.72008238 L157.048951,15.2843896 C157.049179,15.4356083 156.984077,15.5802462 156.868949,15.684275 C156.753821,15.7883038 156.598832,15.8425395 156.440444,15.8342223 C153.268195,15.6912658 149.597038,17.2088041 149.597038,21.8164024 L149.597038,32.4501673 C149.597038,32.7538315 149.338808,33 149.020265,33 L143.8495,33 C143.530957,33 143.272727,32.7538315 143.272727,32.4501673 L143.272727,10.1819419 C143.272727,9.87827764 143.530957,9.63210914 143.8495,9.63210914 L149.020265,9.63210914 C149.338808,9.63210914 149.597038,9.87827764 149.597038,10.1819419 L149.597038,13.6376405 C150.788073,10.6685438 153.562349,9.3324503 156.440444,9.16750049 C156.599334,9.15915384 156.754782,9.21375769 156.870002,9.31839046 C156.985222,9.42302323 157.049976,9.56838692 157.048951,9.72008238 L157.048951,9.72008238 Z" id="Path" fill="#000000"></path>
                        <path d="M197.459207,18.7065596 L197.459207,32.4545529 C197.459207,32.755795 197.198425,33 196.876734,33 L191.65486,33 C191.333169,33 191.072387,32.755795 191.072387,32.4545529 L191.072387,19.1238266 C191.072387,16.3965913 189.58708,14.7193415 186.913527,14.7193415 C184.091443,14.7193415 182.309075,16.4811355 182.309075,19.9583606 L182.309075,32.4545529 C182.309075,32.755795 182.048292,33 181.726601,33 L176.504727,33 C176.183036,33 175.922254,32.755795 175.922254,32.4545529 L175.922254,19.1238266 C175.922254,16.3965913 174.436947,14.7193415 171.763394,14.7193415 C169.040331,14.7193415 167.103607,16.4811355 167.103607,19.9583606 L167.103607,32.4545529 C167.103607,32.755795 166.842824,33 166.521133,33 L161.305084,33 C160.983393,33 160.722611,32.755795 160.722611,32.4545529 L160.722611,10.3639467 C160.722611,10.0627046 160.983393,9.81849962 161.305084,9.81849962 L166.526958,9.81849962 C166.848649,9.81849962 167.109431,10.0627046 167.109431,10.3639467 L167.109431,12.2730114 C168.495718,10.3257654 170.822699,9.16666667 173.991355,9.16666667 C177.060989,9.16666667 179.33846,10.3721284 180.724747,12.5048264 C182.259564,10.4184914 184.735076,9.16666667 188.101772,9.16666667 C193.74594,9.15578143 197.459207,12.9111845 197.459207,18.7065596 Z" id="Path" fill="#000000"></path>
                        <path d="M26.0427565,9.16666667 L4.60308456,9.16666667 C2.05943717,9.17104295 0,11.0170654 0,13.2927348 L0,13.2927348 L0,32.4710169 C0,32.7631662 0.264723334,33 0.591276116,33 L5.9364122,33 C6.26296498,33 6.52768832,32.7631662 6.52768832,32.4710169 L6.52768832,22.0209559 C6.52701289,20.9264924 6.14689894,19.8591607 5.43974026,18.9660785 L3.2727133,16.2259461 L21.0464733,32.124533 C21.157608,32.2254936 21.309372,32.2823434 21.4677576,32.2823434 C21.6261431,32.2823434 21.7779071,32.2254936 21.8890418,32.124533 L25.6613834,28.7469759 C25.7742331,28.6475496 25.8377776,28.5117745 25.8377776,28.3700755 C25.8377776,28.2283764 25.7742331,28.0926013 25.6613834,27.993175 L7.90536167,12.1104576 L10.9386081,14.0333111 C11.9368596,14.6659682 13.1298803,15.0060358 14.3532277,15.00664 L26.0427565,15.00664 C26.3693093,15.00664 26.6340326,14.7698062 26.6340326,14.4776569 L26.6340326,9.69564976 C26.6340326,9.40350047 26.3693093,9.16666667 26.0427565,9.16666667 Z" id="Path" fill="#0068FF"></path>
                        <rect id="Rectangle" fill="#0068FF" x="0" y="0" width="26.6340326" height="6.41666667" rx="0.96"></rect>
                    </g>
                </g>
            </g>
        </g>
    </g>
</svg>