<svg width="60" height="60" viewBox="0 0 60 60" fill="none" xmlns="http://www.w3.org/2000/svg">
<path fill-rule="evenodd" clip-rule="evenodd" d="M30.012 26.0339C27.8053 26.0339 26.0157 27.8225 26.0157 30.0281C26.0157 32.2336 27.8053 34.0222 30.012 34.0222C32.2188 34.0222 34.0083 32.2336 34.0083 30.0281C34.0083 27.8225 32.2188 26.0339 30.012 26.0339" fill="white"/>
<path fill-rule="evenodd" clip-rule="evenodd" d="M49.7296 34.2458C44.2227 36.5784 40.0586 34.6851 40.0586 34.6851C41.1216 35.8314 41.9496 37.1751 42.4963 38.6393C42.9151 40.0421 43.0806 41.5087 42.9839 42.969C41.5252 43.0608 40.0618 42.8963 38.6599 42.4817C37.1821 41.9329 35.825 41.1029 34.6636 40.0373C34.6636 40.0373 36.5579 44.1992 34.2241 49.7111C33.3121 51.848 31.8607 53.7116 30.012 55.1192C28.1545 53.722 26.6919 51.8671 25.768 49.7351C23.4341 44.2231 25.3284 40.0612 25.3284 40.0612C24.167 41.1269 22.8099 41.9569 21.3321 42.5057C19.9302 42.9195 18.4668 43.0848 17.0081 42.9929C16.9114 41.5319 17.0769 40.066 17.4957 38.6633C18.0304 37.2022 18.8448 35.8594 19.8934 34.7091C19.8934 34.7091 15.7293 36.6023 10.2225 34.2697C8.08685 33.3431 6.22859 31.8788 4.82749 30.02C6.23018 28.1643 8.08845 26.7032 10.2225 25.7782C15.7293 23.4456 19.8934 25.3388 19.8934 25.3388C18.8408 24.1773 18.0256 22.8201 17.4957 21.3447C17.0769 19.942 16.9114 18.4761 17.0081 17.015C18.4668 16.9232 19.9302 17.0885 21.3321 17.5023C22.8099 18.0511 24.167 18.8811 25.3284 19.9467C25.3284 19.9467 23.4341 15.7769 25.768 10.2729C26.6919 8.14086 28.1545 6.28598 30.012 4.88883C31.8695 6.28598 33.3321 8.14086 34.256 10.2729C36.5898 15.7769 34.6956 19.9467 34.6956 19.9467C35.8569 18.8811 37.2141 18.0511 38.6919 17.5023C40.0938 17.0885 41.5572 16.9232 43.0159 17.015C43.1126 18.4761 42.9471 19.942 42.5283 21.3447C41.9864 22.8233 41.1584 24.1805 40.0906 25.3388C40.0906 25.3388 44.2547 23.4456 49.7608 25.7782C51.8956 26.7032 53.7546 28.1643 55.1557 30.02C53.7442 31.8741 51.874 33.3311 49.7296 34.2458ZM30.012 0L0 29.996L30.012 60L60 29.996L30.012 0V0Z" fill="white"/>
</svg>
