<svg width="30" height="30" viewBox="0 0 30 30" fill="none" xmlns="http://www.w3.org/2000/svg">
<g clip-path="url(#clip0_8_134)">
<path fill-rule="evenodd" clip-rule="evenodd" d="M15.006 13.0169C13.9026 13.0169 13.0079 13.9112 13.0079 15.014C13.0079 16.1168 13.9026 17.0111 15.006 17.0111C16.1094 17.0111 17.0041 16.1168 17.0041 15.014C17.0041 13.9112 16.1094 13.0169 15.006 13.0169Z" fill="#0C0E0F"/>
<path fill-rule="evenodd" clip-rule="evenodd" d="M24.8648 17.1229C22.1114 18.2892 20.0293 17.3426 20.0293 17.3426C20.5608 17.9157 20.9748 18.5875 21.2482 19.3197C21.4576 20.021 21.5403 20.7544 21.4919 21.4845C20.7626 21.5304 20.0309 21.4481 19.33 21.2408C18.591 20.9664 17.9125 20.5515 17.3318 20.0186C17.3318 20.0186 18.2789 22.0996 17.112 24.8555C16.6561 25.924 15.9303 26.8558 15.006 27.5596C14.0773 26.861 13.3459 25.9336 12.884 24.8675C11.7171 22.1116 12.6642 20.0306 12.6642 20.0306C12.0835 20.5634 11.405 20.9784 10.666 21.2528C9.9651 21.4597 9.23338 21.5424 8.50406 21.4965C8.45571 20.7659 8.53843 20.033 8.74784 19.3316C9.01519 18.6011 9.42241 17.9297 9.94672 17.3545C9.94672 17.3545 7.86466 18.3012 5.11123 17.1349C4.04343 16.6715 3.11429 15.9394 2.41375 15.01C3.11509 14.0821 4.04423 13.3516 5.11123 12.8891C7.86466 11.7228 9.94672 12.6694 9.94672 12.6694C9.42041 12.0887 9.01279 11.4101 8.74784 10.6723C8.53843 9.97098 8.45571 9.23805 8.50406 8.50752C9.23338 8.46159 9.9651 8.54427 10.666 8.75117C11.405 9.02556 12.0835 9.44055 12.6642 9.97337C12.6642 9.97337 11.7171 7.88843 12.884 5.13647C13.3459 4.07043 14.0773 3.14299 15.006 2.44441C15.9347 3.14299 16.666 4.07043 17.128 5.13647C18.2949 7.88843 17.3478 9.97337 17.3478 9.97337C17.9285 9.44055 18.607 9.02556 19.3459 8.75117C20.0469 8.54427 20.7786 8.46159 21.5079 8.50752C21.5563 9.23805 21.4736 9.97098 21.2642 10.6723C20.9932 11.4117 20.5792 12.0903 20.0453 12.6694C20.0453 12.6694 22.1273 11.7228 24.8804 12.8891C25.9478 13.3516 26.8773 14.0821 27.5779 15.01C26.8721 15.937 25.937 16.6656 24.8648 17.1229ZM15.006 0L0 14.998L15.006 30L30 14.998L15.006 0Z" fill="#0C0E0F"/>
</g>
<defs>
<clipPath id="clip0_8_134">
<rect width="30" height="30" fill="white"/>
</clipPath>
</defs>
</svg>
