<svg width="293" height="37" viewBox="0 0 293 37" fill="none" xmlns="http://www.w3.org/2000/svg">
<path d="M11.2344 8.78628V10.8027H4.60899V16.4775H11.004V18.494H4.60899V28H2.47733V8.78628H11.2344ZM14.9675 8.78628H17.0992V25.9836H22.3995V28H14.9675V8.78628ZM40.3521 25.4939C38.4316 27.3951 36.0695 28.3457 33.2657 28.3457C30.4619 28.3457 28.0902 27.3951 26.1506 25.4939C24.2302 23.5927 23.27 21.2305 23.27 18.4075C23.27 15.5653 24.2398 13.2032 26.1794 11.3212C28.119 9.42001 30.4811 8.46941 33.2657 8.46941C36.0503 8.46941 38.4124 9.42001 40.3521 11.3212C42.2917 13.2032 43.2615 15.5653 43.2615 18.4075C43.2615 21.2305 42.2917 23.5927 40.3521 25.4939ZM38.7965 12.7903C37.2794 11.254 35.4358 10.4858 33.2657 10.4858C31.0957 10.4858 29.2521 11.254 27.735 12.7903C26.2178 14.3267 25.4593 16.1991 25.4593 18.4075C25.4593 20.616 26.2178 22.4884 27.735 24.0247C29.2521 25.5611 31.0957 26.3292 33.2657 26.3292C35.4358 26.3292 37.2794 25.5611 38.7965 24.0247C40.3137 22.4884 41.0722 20.616 41.0722 18.4075C41.0722 16.1991 40.3137 14.3267 38.7965 12.7903ZM44.3118 8.78628H46.6739L51.7438 23.1894L57.7643 7.80687L63.4679 23.1894L69.0851 8.78628H71.4472L63.3815 29.0082L57.7355 13.6257L51.6862 29.0082L44.3118 8.78628ZM84.1221 8.78628V10.8027H76.2869V16.5063H83.8917V18.5228H76.2869V25.9836H84.1221V28H74.1552V8.78628H84.1221ZM88.0519 8.78628H91.1342C93.2083 8.78628 94.7638 9.14155 95.8008 9.8521C97.2027 10.7931 97.9037 12.2142 97.9037 14.1154C97.9037 15.5941 97.4524 16.8232 96.5498 17.8026C95.6664 18.782 94.5045 19.3197 93.0642 19.4158L99.1711 28H96.5786L90.7309 19.5886H90.1836V28H88.0519V8.78628ZM90.1836 10.8027V17.6874H91.5375C92.8626 17.6874 93.8996 17.3801 94.6486 16.7656C95.3975 16.1511 95.772 15.2869 95.772 14.173C95.772 12.8672 95.2631 11.9262 94.2453 11.35C93.5923 10.9851 92.6705 10.8027 91.4799 10.8027H90.1836ZM109.235 8.78628H111.366V25.9836H116.667V28H109.235V8.78628ZM132.406 28L130.159 22.5844H121.978L119.674 28H117.312L126.155 7.86448L134.768 28H132.406ZM122.814 20.568H129.324L126.098 12.8768L122.814 20.568ZM139.61 28H137.478V7.9797L152.457 23.6791V8.78628H154.589V28.8642L139.61 13.1648V28ZM169.442 20.3664V18.3499H177.45V18.8108C177.45 21.1921 176.836 23.2182 175.607 24.8889C173.898 27.1934 171.516 28.3457 168.463 28.3457C165.621 28.3457 163.249 27.3951 161.348 25.4939C159.446 23.5735 158.496 21.2113 158.496 18.4075C158.496 15.6037 159.446 13.2512 161.348 11.35C163.268 9.42961 165.659 8.46941 168.52 8.46941C170.787 8.46941 172.745 9.10314 174.397 10.3706C175.242 11.0236 175.981 11.7821 176.615 12.6463L175.031 14.0866C174.474 13.2992 173.869 12.6367 173.216 12.099C171.891 11.0236 170.335 10.4858 168.549 10.4858C166.264 10.4858 164.382 11.2444 162.903 12.7615C161.425 14.2787 160.685 16.1703 160.685 18.4363C160.685 20.0879 161.088 21.5378 161.895 22.7861C162.702 24.0151 163.681 24.9177 164.833 25.4939C166.005 26.0508 167.224 26.3292 168.492 26.3292C169.759 26.3292 170.911 26.0412 171.948 25.4651C173.005 24.8697 173.811 24.0824 174.368 23.1029C174.848 22.2772 175.107 21.365 175.146 20.3664H169.442ZM183.494 8.78628V20.568C183.494 21.2978 183.504 21.8643 183.523 22.2676C183.561 22.6709 183.696 23.1702 183.926 23.7655C184.176 24.3416 184.541 24.8313 185.021 25.2346C185.885 25.9644 186.941 26.3292 188.19 26.3292C189.438 26.3292 190.494 25.9644 191.358 25.2346C191.838 24.8313 192.194 24.3416 192.424 23.7655C192.674 23.1702 192.808 22.6709 192.827 22.2676C192.866 21.8643 192.885 21.2978 192.885 20.568V8.78628H195.017V21.1441C195.017 23.1029 194.613 24.6393 193.807 25.7531C193.212 26.5597 192.424 27.1934 191.445 27.6543C190.485 28.1152 189.4 28.3457 188.19 28.3457C186.98 28.3457 185.885 28.1152 184.906 27.6543C183.946 27.1934 183.168 26.5597 182.572 25.7531C181.766 24.6393 181.363 23.1029 181.363 21.1441V8.78628H183.494ZM212.833 28L210.586 22.5844H202.405L200.101 28H197.738L206.582 7.86448L215.195 28H212.833ZM203.24 20.568H209.751L206.524 12.8768L203.24 20.568ZM227.252 20.3664V18.3499H235.26V18.8108C235.26 21.1921 234.645 23.2182 233.416 24.8889C231.707 27.1934 229.326 28.3457 226.272 28.3457C223.43 28.3457 221.058 27.3951 219.157 25.4939C217.256 23.5735 216.305 21.2113 216.305 18.4075C216.305 15.6037 217.256 13.2512 219.157 11.35C221.077 9.42961 223.468 8.46941 226.33 8.46941C228.596 8.46941 230.555 9.10314 232.206 10.3706C233.051 11.0236 233.791 11.7821 234.424 12.6463L232.84 14.0866C232.283 13.2992 231.678 12.6367 231.025 12.099C229.7 11.0236 228.145 10.4858 226.359 10.4858C224.073 10.4858 222.191 11.2444 220.713 12.7615C219.234 14.2787 218.494 16.1703 218.494 18.4363C218.494 20.0879 218.898 21.5378 219.704 22.7861C220.511 24.0151 221.49 24.9177 222.643 25.4939C223.814 26.0508 225.033 26.3292 226.301 26.3292C227.568 26.3292 228.721 26.0412 229.758 25.4651C230.814 24.8697 231.62 24.0824 232.177 23.1029C232.657 22.2772 232.917 21.365 232.955 20.3664H227.252ZM249.139 8.78628V10.8027H241.304V16.5063H248.908V18.5228H241.304V25.9836H249.139V28H239.172V8.78628H249.139Z" fill="black"/>
<g clip-path="url(#clip0_12_211)">
<path fill-rule="evenodd" clip-rule="evenodd" d="M275.517 16.0492C274.231 16.0492 273.188 17.0919 273.188 18.3777C273.188 19.6635 274.231 20.7062 275.517 20.7062C276.804 20.7062 277.847 19.6635 277.847 18.3777C277.847 17.0919 276.804 16.0492 275.517 16.0492Z" fill="#0C0E0F"/>
<path fill-rule="evenodd" clip-rule="evenodd" d="M287.013 20.7877C283.802 22.1476 281.375 21.0438 281.375 21.0438C281.994 21.7121 282.477 22.4954 282.796 23.3491C283.04 24.1668 283.136 25.0219 283.08 25.8732C282.23 25.9267 281.376 25.8308 280.559 25.5891C279.698 25.2692 278.906 24.7853 278.229 24.164C278.229 24.164 279.334 26.5904 277.973 29.8037C277.441 31.0495 276.595 32.1359 275.518 32.9565C274.435 32.142 273.582 31.0606 273.043 29.8177C271.683 26.6043 272.787 24.178 272.787 24.178C272.11 24.7993 271.319 25.2831 270.457 25.6031C269.64 25.8443 268.787 25.9407 267.937 25.8871C267.88 25.0354 267.977 24.1808 268.221 23.363C268.533 22.5113 269.007 21.7284 269.619 21.0578C269.619 21.0578 267.191 22.1615 263.981 20.8017C262.736 20.2615 261.652 19.4078 260.835 18.3241C261.653 17.2423 262.737 16.3905 263.981 15.8513C267.191 14.4914 269.619 15.5951 269.619 15.5951C269.005 14.918 268.53 14.1268 268.221 13.2666C267.977 12.4488 267.88 11.5943 267.937 10.7425C268.787 10.6889 269.64 10.7853 270.457 11.0266C271.319 11.3465 272.11 11.8304 272.787 12.4516C272.787 12.4516 271.683 10.0207 273.043 6.81197C273.582 5.569 274.435 4.48764 275.518 3.67313C276.6 4.48764 277.453 5.569 277.992 6.81197C279.352 10.0207 278.248 12.4516 278.248 12.4516C278.925 11.8304 279.716 11.3465 280.578 11.0266C281.395 10.7853 282.248 10.6889 283.099 10.7425C283.155 11.5943 283.059 12.4488 282.814 13.2666C282.498 14.1286 282.016 14.9198 281.393 15.5951C281.393 15.5951 283.821 14.4914 287.031 15.8513C288.275 16.3905 289.359 17.2423 290.176 18.3241C289.353 19.405 288.263 20.2545 287.013 20.7877ZM275.518 0.823029L258.021 18.3102L275.518 35.802L293 18.3102L275.518 0.823029Z" fill="#0C0E0F"/>
</g>
<defs>
<clipPath id="clip0_12_211">
<rect width="34.9789" height="34.9789" fill="white" transform="translate(258.021)"/>
</clipPath>
</defs>
</svg>
