<svg width="15" height="14" viewBox="0 0 27 26" fill="none" xmlns="http://www.w3.org/2000/svg">
<path d="M2.65332 9.2041C2.65332 8.25163 2.80371 7.38151 3.10449 6.59375C3.41243 5.79883 3.84212 5.11133 4.39355 4.53125C4.94499 3.95117 5.58952 3.50358 6.32715 3.18848C7.07194 2.87337 7.8776 2.71582 8.74414 2.71582C9.73958 2.71582 10.6312 2.93424 11.4189 3.37109C12.2067 3.80794 12.8405 4.38802 13.3203 5.11133C13.8073 4.38802 14.4411 3.80794 15.2217 3.37109C16.0094 2.93424 16.901 2.71582 17.8965 2.71582C18.7702 2.71582 19.5758 2.87337 20.3135 3.18848C21.0583 3.50358 21.7028 3.95117 22.2471 4.53125C22.7985 5.11133 23.2246 5.79883 23.5254 6.59375C23.8333 7.38151 23.9873 8.25163 23.9873 9.2041C23.9873 10.7295 23.5827 12.2406 22.7734 13.7373C21.9714 15.2269 20.8291 16.6807 19.3467 18.0986C17.8714 19.5094 16.124 20.8594 14.1045 22.1484C13.9899 22.2201 13.8574 22.2845 13.707 22.3418C13.5638 22.4062 13.4349 22.4385 13.3203 22.4385C13.2129 22.4385 13.084 22.4062 12.9336 22.3418C12.7904 22.2845 12.6615 22.2201 12.5469 22.1484C10.5273 20.8594 8.77637 19.5094 7.29395 18.0986C5.81152 16.6807 4.66569 15.2269 3.85645 13.7373C3.05436 12.2406 2.65332 10.7295 2.65332 9.2041ZM4.38281 9.2041C4.38281 10.1995 4.62272 11.2093 5.10254 12.2334C5.58236 13.2503 6.23405 14.2493 7.05762 15.2305C7.88118 16.2116 8.81217 17.1497 9.85059 18.0449C10.8962 18.9329 11.9811 19.7493 13.1055 20.4941C13.2201 20.5801 13.2917 20.623 13.3203 20.623C13.349 20.623 13.4242 20.5801 13.5459 20.4941C14.6702 19.7493 15.7516 18.9329 16.79 18.0449C17.8356 17.1497 18.7666 16.2116 19.583 15.2305C20.4066 14.2493 21.0583 13.2503 21.5381 12.2334C22.0179 11.2093 22.2578 10.1995 22.2578 9.2041C22.2578 8.25163 22.068 7.4209 21.6885 6.71191C21.3161 5.99577 20.8005 5.44076 20.1416 5.04688C19.4899 4.64583 18.7487 4.44531 17.918 4.44531C17.2448 4.44531 16.6647 4.56706 16.1777 4.81055C15.6979 5.04688 15.2826 5.34766 14.9316 5.71289C14.5879 6.07096 14.2943 6.42546 14.0508 6.77637C13.8932 6.98405 13.7643 7.12728 13.6641 7.20605C13.5638 7.28483 13.4492 7.32422 13.3203 7.32422C13.1914 7.32422 13.0732 7.28841 12.9658 7.2168C12.8656 7.13802 12.7402 6.99121 12.5898 6.77637C12.3607 6.41829 12.0742 6.06022 11.7305 5.70215C11.3867 5.34408 10.9678 5.04688 10.4736 4.81055C9.97949 4.56706 9.39583 4.44531 8.72266 4.44531C7.89193 4.44531 7.14714 4.64583 6.48828 5.04688C5.83659 5.44076 5.32096 5.99577 4.94141 6.71191C4.56901 7.4209 4.38281 8.25163 4.38281 9.2041Z" fill="black"/>
</svg>
