<svg width="24" height="24" viewBox="0 0 24 24" fill="none" xmlns="http://www.w3.org/2000/svg">
    <path d="M18.2524 6.64357H17.3687V5.3685C17.3686 2.40813 14.9603 0 12 0C9.03975 0 6.63128 2.40847 6.63128 5.3685V6.64357H5.74757C4.31074 6.64357 3.14169 7.81261 3.14169 9.24944V21.3941C3.14169 22.8313 4.31074 24 5.74757 24H18.2523C19.6892 24 20.8582 22.8312 20.8582 21.3941V9.24944C20.8582 7.81261 19.6892 6.64357 18.2524 6.64357ZM8.33133 5.3685C8.33133 3.34569 9.97697 1.70005 12 1.70005C14.0228 1.70005 15.6685 3.34569 15.6685 5.3685V6.64357H8.33133V5.3685ZM19.1583 21.3941C19.1583 21.894 18.7517 22.2999 18.2524 22.2999H5.74746C5.24796 22.2999 4.84163 21.8936 4.84163 21.3941V9.24944C4.84163 8.74994 5.24796 8.34361 5.74746 8.34361H6.63117V9.53567C6.35801 9.77363 6.18183 10.1202 6.18183 10.5112C6.18183 11.2289 6.76356 11.8109 7.48125 11.8109C8.19872 11.8109 8.78067 11.2289 8.78067 10.5112C8.78067 10.1205 8.60437 9.77397 8.33133 9.53567V8.34361H15.6685V9.53567C15.3953 9.77363 15.2191 10.1202 15.2191 10.5112C15.2191 11.2289 15.8008 11.8109 16.5185 11.8109C17.2362 11.8109 17.818 11.2289 17.818 10.5112C17.818 10.1205 17.6417 9.77363 17.3686 9.53567V8.34361H18.2523C18.7518 8.34361 19.1582 8.74994 19.1582 9.24944V21.3941H19.1583Z"
          fill="black"/>
</svg>
