<svg width="99" height="18" viewBox="0 0 99 18" fill="none" xmlns="http://www.w3.org/2000/svg">
<g clip-path="url(#clip0_8_116)">
<g opacity="0.85">
<path d="M4.61426 14.8311C4.46289 14.7188 4.37012 14.5674 4.33594 14.377C4.30664 14.1865 4.33838 13.9595 4.43115 13.6958L5.96191 9.14014L2.05078 6.32764C1.82129 6.1665 1.6626 6.00049 1.57471 5.82959C1.48682 5.65869 1.47217 5.48291 1.53076 5.30225C1.58936 5.12646 1.7041 4.99463 1.875 4.90674C2.0459 4.81885 2.27295 4.77734 2.55615 4.78223L7.35352 4.81152L8.81104 0.233887C8.89893 -0.034668 9.00879 -0.237305 9.14062 -0.374023C9.27734 -0.510742 9.43848 -0.579102 9.62402 -0.579102C9.81445 -0.579102 9.97559 -0.510742 10.1074 -0.374023C10.2441 -0.237305 10.3564 -0.034668 10.4443 0.233887L11.9019 4.81152L16.6992 4.78223C16.9824 4.77734 17.2095 4.81885 17.3804 4.90674C17.5513 4.99463 17.666 5.12646 17.7246 5.30225C17.7832 5.48291 17.7686 5.65869 17.6807 5.82959C17.5928 6.00049 17.4341 6.1665 17.2046 6.32764L13.2935 9.14014L14.8242 13.6958C14.917 13.9595 14.9463 14.1865 14.9121 14.377C14.8828 14.5674 14.7925 14.7188 14.6411 14.8311C14.4897 14.9482 14.3188 14.9873 14.1284 14.9482C13.938 14.9141 13.7305 14.8164 13.5059 14.6553L9.62402 11.8062L5.74951 14.6553C5.5249 14.8164 5.31738 14.9141 5.12695 14.9482C4.93652 14.9873 4.76562 14.9482 4.61426 14.8311Z" fill="black"/>
</g>
</g>
<g clip-path="url(#clip1_8_116)">
<g opacity="0.85">
<path d="M24.6143 14.8311C24.4629 14.7188 24.3701 14.5674 24.3359 14.377C24.3066 14.1865 24.3384 13.9595 24.4312 13.6958L25.9619 9.14014L22.0508 6.32764C21.8213 6.1665 21.6626 6.00049 21.5747 5.82959C21.4868 5.65869 21.4722 5.48291 21.5308 5.30225C21.5894 5.12646 21.7041 4.99463 21.875 4.90674C22.0459 4.81885 22.2729 4.77734 22.5562 4.78223L27.3535 4.81152L28.811 0.233887C28.8989 -0.034668 29.0088 -0.237305 29.1406 -0.374023C29.2773 -0.510742 29.4385 -0.579102 29.624 -0.579102C29.8145 -0.579102 29.9756 -0.510742 30.1074 -0.374023C30.2441 -0.237305 30.3564 -0.034668 30.4443 0.233887L31.9019 4.81152L36.6992 4.78223C36.9824 4.77734 37.2095 4.81885 37.3804 4.90674C37.5513 4.99463 37.666 5.12646 37.7246 5.30225C37.7832 5.48291 37.7686 5.65869 37.6807 5.82959C37.5928 6.00049 37.4341 6.1665 37.2046 6.32764L33.2935 9.14014L34.8242 13.6958C34.917 13.9595 34.9463 14.1865 34.9121 14.377C34.8828 14.5674 34.7925 14.7188 34.6411 14.8311C34.4897 14.9482 34.3188 14.9873 34.1284 14.9482C33.938 14.9141 33.7305 14.8164 33.5059 14.6553L29.624 11.8062L25.7495 14.6553C25.5249 14.8164 25.3174 14.9141 25.127 14.9482C24.9365 14.9873 24.7656 14.9482 24.6143 14.8311Z" fill="black"/>
</g>
</g>
<g clip-path="url(#clip2_8_116)">
<g opacity="0.85">
<path d="M44.6143 14.8311C44.4629 14.7188 44.3701 14.5674 44.3359 14.377C44.3066 14.1865 44.3384 13.9595 44.4312 13.6958L45.9619 9.14014L42.0508 6.32764C41.8213 6.1665 41.6626 6.00049 41.5747 5.82959C41.4868 5.65869 41.4722 5.48291 41.5308 5.30225C41.5894 5.12646 41.7041 4.99463 41.875 4.90674C42.0459 4.81885 42.2729 4.77734 42.5562 4.78223L47.3535 4.81152L48.811 0.233887C48.8989 -0.034668 49.0088 -0.237305 49.1406 -0.374023C49.2773 -0.510742 49.4385 -0.579102 49.624 -0.579102C49.8145 -0.579102 49.9756 -0.510742 50.1074 -0.374023C50.2441 -0.237305 50.3564 -0.034668 50.4443 0.233887L51.9019 4.81152L56.6992 4.78223C56.9824 4.77734 57.2095 4.81885 57.3804 4.90674C57.5513 4.99463 57.666 5.12646 57.7246 5.30225C57.7832 5.48291 57.7686 5.65869 57.6807 5.82959C57.5928 6.00049 57.4341 6.1665 57.2046 6.32764L53.2935 9.14014L54.8242 13.6958C54.917 13.9595 54.9463 14.1865 54.9121 14.377C54.8828 14.5674 54.7925 14.7188 54.6411 14.8311C54.4897 14.9482 54.3188 14.9873 54.1284 14.9482C53.938 14.9141 53.7305 14.8164 53.5059 14.6553L49.624 11.8062L45.7495 14.6553C45.5249 14.8164 45.3174 14.9141 45.127 14.9482C44.9365 14.9873 44.7656 14.9482 44.6143 14.8311Z" fill="black"/>
</g>
</g>
<g clip-path="url(#clip3_8_116)">
<g opacity="0.85">
<path d="M64.6143 14.8311C64.4629 14.7188 64.3701 14.5674 64.3359 14.377C64.3066 14.1865 64.3384 13.9595 64.4312 13.6958L65.9619 9.14014L62.0508 6.32764C61.8213 6.1665 61.6626 6.00049 61.5747 5.82959C61.4868 5.65869 61.4722 5.48291 61.5308 5.30225C61.5894 5.12646 61.7041 4.99463 61.875 4.90674C62.0459 4.81885 62.2729 4.77734 62.5562 4.78223L67.3535 4.81152L68.811 0.233887C68.8989 -0.034668 69.0088 -0.237305 69.1406 -0.374023C69.2773 -0.510742 69.4385 -0.579102 69.624 -0.579102C69.8145 -0.579102 69.9756 -0.510742 70.1074 -0.374023C70.2441 -0.237305 70.3564 -0.034668 70.4443 0.233887L71.9019 4.81152L76.6992 4.78223C76.9824 4.77734 77.2095 4.81885 77.3804 4.90674C77.5513 4.99463 77.666 5.12646 77.7246 5.30225C77.7832 5.48291 77.7686 5.65869 77.6807 5.82959C77.5928 6.00049 77.4341 6.1665 77.2046 6.32764L73.2935 9.14014L74.8242 13.6958C74.917 13.9595 74.9463 14.1865 74.9121 14.377C74.8828 14.5674 74.7925 14.7188 74.6411 14.8311C74.4897 14.9482 74.3188 14.9873 74.1284 14.9482C73.938 14.9141 73.7305 14.8164 73.5059 14.6553L69.624 11.8062L65.7495 14.6553C65.5249 14.8164 65.3174 14.9141 65.127 14.9482C64.9365 14.9873 64.7656 14.9482 64.6143 14.8311Z" fill="black"/>
</g>
</g>
<g clip-path="url(#clip4_8_116)">
<g opacity="0.85">
<path d="M84.6143 14.8311C84.4629 14.7188 84.3701 14.5674 84.3359 14.377C84.3066 14.1865 84.3384 13.9595 84.4312 13.6958L85.9619 9.14014L82.0508 6.32764C81.8213 6.1665 81.6626 6.00049 81.5747 5.82959C81.4868 5.65869 81.4722 5.48291 81.5308 5.30225C81.5894 5.12646 81.7041 4.99463 81.875 4.90674C82.0459 4.81885 82.2729 4.77734 82.5562 4.78223L87.3535 4.81152L88.811 0.233887C88.8989 -0.034668 89.0088 -0.237305 89.1406 -0.374023C89.2773 -0.510742 89.4385 -0.579102 89.624 -0.579102C89.8145 -0.579102 89.9756 -0.510742 90.1074 -0.374023C90.2441 -0.237305 90.3564 -0.034668 90.4443 0.233887L91.9019 4.81152L96.6992 4.78223C96.9824 4.77734 97.2095 4.81885 97.3804 4.90674C97.5513 4.99463 97.666 5.12646 97.7246 5.30225C97.7832 5.48291 97.7686 5.65869 97.6807 5.82959C97.5928 6.00049 97.4341 6.1665 97.2046 6.32764L93.2935 9.14014L94.8242 13.6958C94.917 13.9595 94.9463 14.1865 94.9121 14.377C94.8828 14.5674 94.7925 14.7188 94.6411 14.8311C94.4897 14.9482 94.3188 14.9873 94.1284 14.9482C93.938 14.9141 93.7305 14.8164 93.5059 14.6553L89.624 11.8062L85.7495 14.6553C85.5249 14.8164 85.3174 14.9141 85.127 14.9482C84.9365 14.9873 84.7656 14.9482 84.6143 14.8311Z" fill="black"/>
</g>
</g>
<defs>
<clipPath id="clip0_8_116">
<rect width="19" height="18" fill="white"/>
</clipPath>
<clipPath id="clip1_8_116">
<rect width="19" height="18" fill="white" transform="translate(20)"/>
</clipPath>
<clipPath id="clip2_8_116">
<rect width="19" height="18" fill="white" transform="translate(40)"/>
</clipPath>
<clipPath id="clip3_8_116">
<rect width="19" height="18" fill="white" transform="translate(60)"/>
</clipPath>
<clipPath id="clip4_8_116">
<rect width="19" height="18" fill="white" transform="translate(80)"/>
</clipPath>
</defs>
</svg>
