<svg width="19" height="21" viewBox="0 0 19 21" fill="none" xmlns="http://www.w3.org/2000/svg">
<g clip-path="url(#clip0_8_128)">
<path d="M9.87891 14.3389C9.65625 14.3389 9.45703 14.2539 9.28125 14.084L2.47852 7.12305C2.40234 7.04688 2.34375 6.96191 2.30273 6.86816C2.26172 6.76855 2.24121 6.66309 2.24121 6.55176C2.24121 6.39941 2.27637 6.26172 2.34668 6.13867C2.41699 6.01562 2.51074 5.91895 2.62793 5.84863C2.75098 5.77832 2.88867 5.74316 3.04102 5.74316C3.26367 5.74316 3.4541 5.81934 3.6123 5.97168L10.3447 12.8535H9.4043L16.1367 5.97168C16.3008 5.81934 16.4912 5.74316 16.708 5.74316C16.8604 5.74316 16.9951 5.77832 17.1123 5.84863C17.2354 5.91895 17.332 6.01562 17.4023 6.13867C17.4727 6.26172 17.5078 6.39941 17.5078 6.55176C17.5078 6.76855 17.4287 6.95605 17.2705 7.11426L10.4678 14.084C10.3916 14.166 10.3008 14.2305 10.1953 14.2773C10.0957 14.3184 9.99023 14.3389 9.87891 14.3389Z" fill="black"/>
</g>
<defs>
<clipPath id="clip0_8_128">
<rect width="19" height="21" fill="white"/>
</clipPath>
</defs>
</svg>
