<?xml version="1.0" encoding="UTF-8"?>
<svg width="144px" height="48px" viewBox="0 0 144 48" version="1.1" xmlns="http://www.w3.org/2000/svg" xmlns:xlink="http://www.w3.org/1999/xlink">
    <title>Group 2</title>
    <defs>
        <linearGradient x1="87.5878714%" y1="-32.5%" x2="9.73198571%" y2="-32.5%" id="linearGradient-1">
            <stop stop-color="#1F5CD7" offset="0%"></stop>
            <stop stop-color="#02AEFF" offset="100%"></stop>
        </linearGradient>
        <linearGradient x1="87.5878714%" y1="-32.5%" x2="9.73198571%" y2="-32.5%" id="linearGradient-2">
            <stop stop-color="white" offset="0%"></stop>
            <stop stop-color="white" offset="100%"></stop>
        </linearGradient>
    </defs>
    <g id="Page-1" stroke="none" stroke-width="1" fill="none" fill-rule="evenodd">
        <g id="Group-2">
            <g id="8679453_visa_line_icon">
                <polygon id="Path" points="0 0 48 0 48 48 0 48"></polygon>
                <path d="M44.444,31.536 L43.994,29.286 L38.966,29.286 L38.166,31.52 L34.136,31.528 C36.0545503,26.914285 37.9772178,22.3022832 39.904,17.692 C40.232,16.91 40.814,16.512 41.672,16.5159701 C42.328,16.522 43.398,16.522 44.884,16.518 L48,31.53 L44.444,31.536 Z M40.098,26.204 L43.338,26.204 L42.128,20.564 L40.098,26.204 Z M14.12,16.514 L18.172,16.518 L11.908,31.538 L7.806,31.534 C6.77449736,27.5666374 5.75582536,23.59595 4.75,19.622 C4.55,18.83 4.154,18.276 3.392,18.014 C2.714,17.78 1.584,17.42 0,16.93 L0,16.52 L6.474,16.52 C7.594,16.52 8.248,17.062 8.458,18.174 C8.67,19.288 9.202,22.124 10.058,26.682 L14.12,16.514 Z M23.74,16.518 L20.536,31.534 L16.68,31.53 L19.88,16.514 L23.74,16.518 Z M31.56,16.24 C32.714,16.24 34.168,16.6 35.004,16.93 L34.328,20.044 C33.572,19.74 32.328,19.33 31.282,19.344 C29.762,19.37 28.822,20.008 28.822,20.62 C28.822,21.616 30.454,22.118 32.134,23.206 C34.052,24.446 34.304,25.56 34.28,26.77 C34.254,29.282 32.134,31.76 27.662,31.76 C25.622,31.73 24.886,31.558 23.222,30.968 L23.926,27.718 C25.62,28.428 26.338,28.654 27.786,28.654 C29.112,28.654 30.25,28.118 30.26,27.184 C30.268,26.52 29.86,26.19 28.372,25.37 C26.884,24.548 24.796,23.41 24.824,21.126 C24.858,18.202 27.628,16.24 31.562,16.24 L31.56,16.24 Z" id="Shape" fill="white" fill-rule="nonzero"></path>
            </g>
            <g id="Mir-logo.SVG" transform="translate(85.000000, 16.000000)" fill-rule="nonzero">
                <path d="M0,0.00260374288 L5.53511904,0.00260374288 C6.03831168,0.00260374288 7.5478896,-0.164035801 8.21881311,2.16891782 C8.72200575,3.66867372 9.39292927,6.00162734 10.3993146,9.50105777 L10.7347763,9.50105777 C11.7411616,5.83498779 12.579816,3.33539463 12.9152778,2.16891782 C13.5862013,-0.164035801 15.2635101,0.00260374288 15.9344336,0.00260374288 L21.1340909,0.00260374288 L21.1340909,16 L15.7667027,16 L15.7667027,6.50154597 L15.4312409,6.50154597 L12.579816,16 L8.55427487,16 L5.70284992,6.50154597 L5.19965728,6.50154597 L5.19965728,16 L0,16 M23.3145923,0.00260374288 L28.6819805,0.00260374288 L28.6819805,9.50105777 L29.1851731,9.50105777 L32.7075216,1.66899919 C33.3784451,0.169243287 34.888023,0.00260374288 34.888023,0.00260374288 L39.9199494,0.00260374288 L39.9199494,16 L34.5525613,16 L34.5525613,6.50154597 L34.2170995,6.50154597 L30.694751,14.3336046 C30.0238275,15.8333605 28.3465187,16 28.3465187,16 L23.3145923,16 M47.1323772,11.1674532 L47.1323772,16 L42.1004509,16 L42.1004509,7.66802278 L58.5380771,7.66802278 C57.8671536,9.66769731 55.5189212,11.1674532 52.8352272,11.1674532" id="Shape" fill="white"></path>
                <path d="M58.8735388,6.66818552 C59.5444624,3.66867372 57.5316918,0.00260374288 53.1706889,0.00260374288 L41.7649891,0.00260374288 C42.1004509,3.50203417 45.1196067,6.66818552 48.3064934,6.66818552" id="Path" fill="url(#linearGradient-2)"></path>
            </g>
            <g id="Mastercard-logo" transform="translate(53.000000, 14.000000)" fill="white" fill-rule="nonzero">
                <path d="M4.89361489,20.9539948 L4.89361489,19.5603093 C4.89361489,19.0271907 4.56935548,18.6780928 4.01271017,18.6780928 C3.73438751,18.6780928 3.4317454,18.7701031 3.22367894,19.0731959 C3.06154924,18.8188144 2.82916333,18.6780928 2.48058447,18.6780928 C2.24819856,18.6780928 2.01581265,18.7484536 1.83206565,19.0028351 L1.83206565,18.7240979 L1.34567654,18.7240979 L1.34567654,20.9539948 L1.83206565,20.9539948 L1.83206565,19.7226804 C1.83206565,19.3275773 2.04013211,19.1408505 2.36439151,19.1408505 C2.68865092,19.1408505 2.85078062,19.3492268 2.85078062,19.7226804 L2.85078062,20.9539948 L3.33716974,20.9539948 L3.33716974,19.7226804 C3.33716974,19.3275773 3.56955564,19.1408505 3.8694956,19.1408505 C4.193755,19.1408505 4.35588471,19.3492268 4.35588471,19.7226804 L4.35588471,20.9539948 L4.89361489,20.9539948 Z M12.1083867,18.7240979 L11.3193555,18.7240979 L11.3193555,18.0502577 L10.8329664,18.0502577 L10.8329664,18.7240979 L10.392514,18.7240979 L10.392514,19.1652062 L10.8329664,19.1652062 L10.8329664,20.1881443 C10.8329664,20.6996134 11.0410328,21 11.5976781,21 C11.8057446,21 12.0381305,20.9296392 12.2002602,20.8376289 L12.0597478,20.4181701 C11.9192354,20.5101804 11.7571057,20.5345361 11.6409127,20.5345361 C11.4085268,20.5345361 11.3166533,20.3938144 11.3166533,20.1637887 L11.3166533,19.1652062 L12.1056845,19.1652062 L12.1056845,18.7240979 L12.1083867,18.7240979 Z M16.2372898,18.6753866 C15.9589672,18.6753866 15.772518,18.8161082 15.6563251,19.0001289 L15.6563251,18.7213918 L15.1699359,18.7213918 L15.1699359,20.9512887 L15.6563251,20.9512887 L15.6563251,19.6956186 C15.6563251,19.3248711 15.8184548,19.1137887 16.1210969,19.1137887 C16.2129704,19.1137887 16.3291633,19.1381443 16.423739,19.1597938 L16.5642514,18.6943299 C16.4669736,18.6753866 16.3291633,18.6753866 16.2372898,18.6753866 L16.2372898,18.6753866 Z M9.9979984,18.9081186 C9.76561249,18.7457474 9.44135308,18.6753866 9.09277422,18.6753866 C8.5361289,18.6753866 8.16593275,18.9541237 8.16593275,19.395232 C8.16593275,19.7659794 8.4442554,19.9770619 8.93064452,20.0447165 L9.16303042,20.0690722 C9.41703363,20.1150773 9.55754604,20.1854381 9.55754604,20.3018041 C9.55754604,20.4641753 9.37109688,20.5805412 9.04683747,20.5805412 C8.72257806,20.5805412 8.4658727,20.4641753 8.30374299,20.3478093 L8.07135709,20.7185567 C8.32536029,20.9052835 8.67393915,20.9972938 9.02251801,20.9972938 C9.67103683,20.9972938 10.0439351,20.694201 10.0439351,20.2774485 C10.0439351,19.8823454 9.74129303,19.6739691 9.27922338,19.6036082 L9.04683747,19.5792526 C8.83877102,19.5548969 8.67664131,19.5088918 8.67664131,19.3708763 C8.67664131,19.2085052 8.83877102,19.1164948 9.09547638,19.1164948 C9.37379904,19.1164948 9.6521217,19.2328608 9.79263411,19.3032216 L9.9979984,18.9081186 L9.9979984,18.9081186 Z M22.9386509,18.6753866 C22.6603283,18.6753866 22.4738791,18.8161082 22.3576861,19.0001289 L22.3576861,18.7213918 L21.871297,18.7213918 L21.871297,20.9512887 L22.3576861,20.9512887 L22.3576861,19.6956186 C22.3576861,19.3248711 22.5198159,19.1137887 22.822458,19.1137887 C22.9143315,19.1137887 23.0305244,19.1381443 23.1251001,19.1597938 L23.2656125,18.6997423 C23.1710368,18.6753866 23.0332266,18.6753866 22.9386509,18.6753866 L22.9386509,18.6753866 Z M16.7236789,19.8390464 C16.7236789,20.5128866 17.1884508,21 17.9072258,21 C18.2314852,21 18.4638711,20.9296392 18.696257,20.7456186 L18.4638711,20.3505155 C18.2774219,20.4912371 18.0936749,20.5588918 17.8829063,20.5588918 C17.4883907,20.5588918 17.2100681,20.2801546 17.2100681,19.8390464 C17.2100681,19.4195876 17.4883907,19.1408505 17.8829063,19.119201 C18.0909728,19.119201 18.2774219,19.1895619 18.4638711,19.3275773 L18.696257,18.9324742 C18.4638711,18.7457474 18.2314852,18.6780816 17.9072258,18.6780816 C17.1884508,18.6753866 16.7236789,19.1652062 16.7236789,19.8390464 L16.7236789,19.8390464 L16.7236789,19.8390464 Z M21.2227782,19.8390464 L21.2227782,18.7240979 L20.7363891,18.7240979 L20.7363891,19.0028351 C20.5742594,18.7944588 20.3418735,18.6780928 20.0392314,18.6780928 C19.4123299,18.6780928 18.9259408,19.1652062 18.9259408,19.8390464 C18.9259408,20.5128866 19.4123299,21 20.0392314,21 C20.3634908,21 20.5958767,20.883634 20.7363891,20.6752577 L20.7363891,20.9539948 L21.2227782,20.9539948 L21.2227782,19.8390464 L21.2227782,19.8390464 Z M19.4366493,19.8390464 C19.4366493,19.4439433 19.6906525,19.119201 20.1094876,19.119201 C20.5040032,19.119201 20.7823259,19.4222938 20.7823259,19.8390464 C20.7823259,20.2341495 20.5040032,20.5588918 20.1094876,20.5588918 C19.6933547,20.5345361 19.4366493,20.2314433 19.4366493,19.8390464 L19.4366493,19.8390464 Z M13.616193,18.6753866 C12.9676741,18.6753866 12.5029023,19.1408505 12.5029023,19.8363402 C12.5029023,20.5345361 12.9676741,20.9972938 13.6405124,20.9972938 C13.9647718,20.9972938 14.2890312,20.9052835 14.5457366,20.694201 L14.3133507,20.3451031 C14.1269015,20.4858247 13.8945156,20.5778351 13.6648319,20.5778351 C13.3621898,20.5778351 13.0622498,20.4371134 12.9919936,20.0447165 L14.6376101,20.0447165 C14.6376101,19.9743557 14.6376101,19.9283505 14.6376101,19.8579897 C14.6592274,19.1408505 14.2403923,18.6753866 13.616193,18.6753866 L13.616193,18.6753866 L13.616193,18.6753866 Z M13.616193,19.0948454 C13.9188351,19.0948454 14.1269015,19.2815722 14.1728383,19.6279639 L13.0136109,19.6279639 C13.0595476,19.3275773 13.2676141,19.0948454 13.616193,19.0948454 L13.616193,19.0948454 Z M25.7002602,19.8390464 L25.7002602,17.8418814 L25.2138711,17.8418814 L25.2138711,19.0028351 C25.0517414,18.7944588 24.8193555,18.6780928 24.5167134,18.6780928 C23.8898118,18.6780928 23.4034227,19.1652062 23.4034227,19.8390464 C23.4034227,20.5128866 23.8898118,21 24.5167134,21 C24.8409728,21 25.0733587,20.883634 25.2138711,20.6752577 L25.2138711,20.9539948 L25.7002602,20.9539948 L25.7002602,19.8390464 L25.7002602,19.8390464 Z M23.9141313,19.8390464 C23.9141313,19.4439433 24.1681345,19.119201 24.5869696,19.119201 C24.9814852,19.119201 25.2598078,19.4222938 25.2598078,19.8390464 C25.2598078,20.2341495 24.9814852,20.5588918 24.5869696,20.5588918 C24.1681345,20.5345361 23.9141313,20.2314433 23.9141313,19.8390464 L23.9141313,19.8390464 Z M7.63090472,19.8390464 L7.63090472,18.7240979 L7.14451561,18.7240979 L7.14451561,19.0028351 C6.98238591,18.7944588 6.75,18.6780928 6.44735789,18.6780928 C5.82045637,18.6780928 5.33406725,19.1652062 5.33406725,19.8390464 C5.33406725,20.5128866 5.82045637,21 6.44735789,21 C6.77161729,21 7.0040032,20.883634 7.14451561,20.6752577 L7.14451561,20.9539948 L7.63090472,20.9539948 L7.63090472,19.8390464 L7.63090472,19.8390464 Z M5.82315853,19.8390464 C5.82315853,19.4439433 6.07716173,19.119201 6.4959968,19.119201 C6.89051241,19.119201 7.16883507,19.4222938 7.16883507,19.8390464 C7.16883507,20.2341495 6.89051241,20.5588918 6.4959968,20.5588918 C6.07716173,20.5345361 5.82315853,20.2314433 5.82315853,19.8390464 Z" id="XMLID_1775_"></path>
                <g id="Group">
                    <rect id="rect19" x="9.83586869" y="1.78878866" width="7.30664532" height="13.1466495"></rect>
                    <path d="M10.3222578,8.3621134 C10.3222578,5.69110825 11.5760608,3.32048969 13.5,1.78878866 C12.0840673,0.673840206 10.2979384,0 8.34967974,0 C3.73438751,0 0,3.73994845 0,8.3621134 C0,12.9842784 3.73438751,16.7242268 8.34967974,16.7242268 C10.2979384,16.7242268 12.0840673,16.0503866 13.5,14.9354381 C11.5733587,13.4253866 10.3222578,11.0331186 10.3222578,8.3621134 Z" id="XMLID_330_"></path>
                    <path d="M27,8.3621134 C27,12.9842784 23.2656125,16.7242268 18.6503203,16.7242268 C16.7020616,16.7242268 14.9159327,16.0503866 13.5,14.9354381 C15.4482586,13.4010309 16.6777422,11.0331186 16.6777422,8.3621134 C16.6777422,5.69110825 15.4239392,3.32048969 13.5,1.78878866 C14.9132306,0.673840206 16.6993595,0 18.6476181,0 C23.2656125,0 27,3.76430412 27,8.3621134 Z" id="path22"></path>
                </g>
            </g>
        </g>
    </g>
</svg>