<svg width="19" height="18" viewBox="0 0 19 18" fill="none" xmlns="http://www.w3.org/2000/svg">
<g clip-path="url(#clip0_8_74)">
<g opacity="0.85">
<path d="M4.61426 14.8311C4.46289 14.7188 4.37012 14.5674 4.33594 14.377C4.30664 14.1865 4.33838 13.9595 4.43115 13.6958L5.96191 9.14014L2.05078 6.32764C1.82129 6.1665 1.6626 6.00049 1.57471 5.82959C1.48682 5.65869 1.47217 5.48291 1.53076 5.30225C1.58936 5.12646 1.7041 4.99463 1.875 4.90674C2.0459 4.81885 2.27295 4.77734 2.55615 4.78223L7.35352 4.81152L8.81104 0.233887C8.89893 -0.034668 9.00879 -0.237305 9.14062 -0.374023C9.27734 -0.510742 9.43848 -0.579102 9.62402 -0.579102C9.81445 -0.579102 9.97559 -0.510742 10.1074 -0.374023C10.2441 -0.237305 10.3564 -0.034668 10.4443 0.233887L11.9019 4.81152L16.6992 4.78223C16.9824 4.77734 17.2095 4.81885 17.3804 4.90674C17.5513 4.99463 17.666 5.12646 17.7246 5.30225C17.7832 5.48291 17.7686 5.65869 17.6807 5.82959C17.5928 6.00049 17.4341 6.1665 17.2046 6.32764L13.2935 9.14014L14.8242 13.6958C14.917 13.9595 14.9463 14.1865 14.9121 14.377C14.8828 14.5674 14.7925 14.7188 14.6411 14.8311C14.4897 14.9482 14.3188 14.9873 14.1284 14.9482C13.938 14.9141 13.7305 14.8164 13.5059 14.6553L9.62402 11.8062L5.74951 14.6553C5.5249 14.8164 5.31738 14.9141 5.12695 14.9482C4.93652 14.9873 4.76562 14.9482 4.61426 14.8311Z" fill="black"/>
</g>
</g>
<defs>
<clipPath id="clip0_8_74">
<rect width="19" height="18" fill="white"/>
</clipPath>
</defs>
</svg>
