<svg width="18" height="21" viewBox="0 0 18 21" fill="none" xmlns="http://www.w3.org/2000/svg">
<g clip-path="url(#clip0_12_185)">
<path d="M2.24121 9.6543C2.24121 9.4375 2.31738 9.25293 2.46973 9.10059C2.62793 8.94238 2.8125 8.86328 3.02344 8.86328H8.70996V3.18555C8.70996 2.97461 8.78613 2.79297 8.93848 2.64062C9.09082 2.48242 9.27539 2.40332 9.49219 2.40332C9.70898 2.40332 9.89355 2.48242 10.0459 2.64062C10.2041 2.79297 10.2832 2.97461 10.2832 3.18555V8.86328H15.9609C16.1719 8.86328 16.3535 8.94238 16.5059 9.10059C16.6641 9.25293 16.7432 9.4375 16.7432 9.6543C16.7432 9.87109 16.6641 10.0557 16.5059 10.208C16.3535 10.3604 16.1719 10.4365 15.9609 10.4365H10.2832V16.123C10.2832 16.334 10.2041 16.5156 10.0459 16.668C9.89355 16.8262 9.70898 16.9053 9.49219 16.9053C9.27539 16.9053 9.09082 16.8262 8.93848 16.668C8.78613 16.5156 8.70996 16.334 8.70996 16.123V10.4365H3.02344C2.8125 10.4365 2.62793 10.3604 2.46973 10.208C2.31738 10.0557 2.24121 9.87109 2.24121 9.6543Z" fill="black"/>
</g>
<defs>
<clipPath id="clip0_12_185">
<rect width="18" height="21" fill="white"/>
</clipPath>
</defs>
</svg>
