<svg width="20" height="21" viewBox="0 0 20 21" fill="none" xmlns="http://www.w3.org/2000/svg">
<g clip-path="url(#clip0_8_122)">
<path d="M10.5381 18.6191C9.31348 18.6191 8.15918 18.3848 7.0752 17.916C5.99707 17.4473 5.04492 16.7998 4.21875 15.9736C3.39258 15.1475 2.74512 14.1953 2.27637 13.1172C1.80762 12.0332 1.57324 10.8789 1.57324 9.6543C1.57324 8.42969 1.80762 7.27832 2.27637 6.2002C2.74512 5.11621 3.38965 4.16113 4.20996 3.33496C5.03613 2.50879 5.98828 1.86133 7.06641 1.39258C8.15039 0.923828 9.30469 0.689453 10.5293 0.689453C11.7539 0.689453 12.9082 0.923828 13.9922 1.39258C15.0762 1.86133 16.0312 2.50879 16.8574 3.33496C17.6836 4.16113 18.3311 5.11621 18.7998 6.2002C19.2686 7.27832 19.5029 8.42969 19.5029 9.6543C19.5029 10.8789 19.2686 12.0332 18.7998 13.1172C18.3311 14.1953 17.6836 15.1475 16.8574 15.9736C16.0312 16.7998 15.0762 17.4473 13.9922 17.916C12.9141 18.3848 11.7627 18.6191 10.5381 18.6191ZM10.5381 17.125C11.5752 17.125 12.5449 16.9316 13.4473 16.5449C14.3555 16.1582 15.1494 15.625 15.8291 14.9453C16.5146 14.2598 17.0479 13.4658 17.4287 12.5635C17.8154 11.6611 18.0088 10.6914 18.0088 9.6543C18.0088 8.61719 17.8154 7.64746 17.4287 6.74512C17.042 5.84277 16.5059 5.04883 15.8203 4.36328C15.1348 3.67773 14.3408 3.14453 13.4385 2.76367C12.5361 2.37695 11.5664 2.18359 10.5293 2.18359C9.49219 2.18359 8.52246 2.37695 7.62012 2.76367C6.71777 3.14453 5.92676 3.67773 5.24707 4.36328C4.56738 5.04883 4.03418 5.84277 3.64746 6.74512C3.2666 7.64746 3.07617 8.61719 3.07617 9.6543C3.07617 10.6914 3.2666 11.6611 3.64746 12.5635C4.03418 13.4658 4.56738 14.2598 5.24707 14.9453C5.93262 15.625 6.72656 16.1582 7.62891 16.5449C8.53125 16.9316 9.50098 17.125 10.5381 17.125ZM15.0469 9.63672C15.0469 9.8125 14.9619 9.98535 14.792 10.1553L11.8301 13.1348C11.707 13.2578 11.5518 13.3193 11.3643 13.3193C11.1885 13.3193 11.0391 13.2578 10.916 13.1348C10.793 13.0059 10.7314 12.8535 10.7314 12.6777C10.7314 12.4844 10.7988 12.3262 10.9336 12.2031L12.0322 11.1221L13.0957 10.2256L11.2324 10.2959H6.65332C6.45996 10.2959 6.30176 10.2344 6.17871 10.1113C6.05566 9.98828 5.99414 9.83008 5.99414 9.63672C5.99414 9.44922 6.05566 9.29395 6.17871 9.1709C6.30176 9.04199 6.45996 8.97754 6.65332 8.97754H11.2324L13.0869 9.04785L12.0322 8.16016L10.9336 7.07031C10.7988 6.94141 10.7314 6.78613 10.7314 6.60449C10.7314 6.42285 10.793 6.27344 10.916 6.15625C11.0391 6.0332 11.1885 5.97168 11.3643 5.97168C11.5576 5.97168 11.7129 6.03027 11.8301 6.14746L14.792 9.12695C14.9619 9.29688 15.0469 9.4668 15.0469 9.63672Z" fill="black"/>
</g>
<defs>
<clipPath id="clip0_8_122">
<rect width="20" height="21" fill="white"/>
</clipPath>
</defs>
</svg>
