<svg width="18" height="18" viewBox="0 0 18 18" fill="none" xmlns="http://www.w3.org/2000/svg">
<g clip-path="url(#clip0_8_160)">
<path d="M11.8726 13.9595C11.5503 13.9595 11.2549 13.8789 10.9863 13.7178C10.7227 13.5615 10.5103 13.3491 10.3491 13.0806C10.188 12.8169 10.1074 12.5239 10.1074 12.2017C10.1074 11.8794 10.188 11.5864 10.3491 11.3228C10.5103 11.0542 10.7227 10.8418 10.9863 10.6855C11.2549 10.5244 11.5503 10.4438 11.8726 10.4438C12.1948 10.4438 12.4878 10.5244 12.7515 10.6855C13.02 10.8418 13.2324 11.0542 13.3887 11.3228C13.5498 11.5864 13.6304 11.8794 13.6304 12.2017C13.6304 12.5239 13.5498 12.8169 13.3887 13.0806C13.2324 13.3491 13.02 13.5615 12.7515 13.7178C12.4878 13.8789 12.1948 13.9595 11.8726 13.9595ZM11.8726 13.0586C12.1118 13.0586 12.3145 12.9756 12.4805 12.8096C12.6465 12.6436 12.7295 12.4409 12.7295 12.2017C12.7295 11.9575 12.6465 11.7549 12.4805 11.5938C12.3145 11.4277 12.1118 11.3447 11.8726 11.3447C11.6333 11.3447 11.4307 11.4277 11.2646 11.5938C11.0986 11.7549 11.0156 11.9575 11.0156 12.2017C11.0156 12.4409 11.0986 12.6436 11.2646 12.8096C11.4307 12.9756 11.6333 13.0586 11.8726 13.0586ZM10.708 11.6084V12.7876H2.45361C2.29248 12.7876 2.15332 12.7314 2.03613 12.6191C1.92383 12.502 1.86768 12.3628 1.86768 12.2017C1.86768 12.0356 1.92383 11.8965 2.03613 11.7842C2.15332 11.667 2.29248 11.6084 2.45361 11.6084H10.708ZM16.062 11.6084C16.2134 11.6084 16.3452 11.667 16.4575 11.7842C16.5698 11.8965 16.626 12.0356 16.626 12.2017C16.626 12.3628 16.5698 12.502 16.4575 12.6191C16.3452 12.7314 16.2134 12.7876 16.062 12.7876H13.147V11.6084H16.062ZM6.70166 9.4917C6.37939 9.4917 6.08398 9.41113 5.81543 9.25C5.55176 9.08887 5.33936 8.87646 5.17822 8.61279C5.02197 8.34424 4.94385 8.04883 4.94385 7.72656C4.94385 7.4043 5.02197 7.11133 5.17822 6.84766C5.33936 6.5791 5.55176 6.3667 5.81543 6.21045C6.08398 6.04932 6.37939 5.96875 6.70166 5.96875C7.02393 5.96875 7.31689 6.04932 7.58057 6.21045C7.84912 6.3667 8.06152 6.5791 8.21777 6.84766C8.37891 7.11133 8.45947 7.4043 8.45947 7.72656C8.45947 8.04883 8.37891 8.34424 8.21777 8.61279C8.06152 8.87646 7.84912 9.08887 7.58057 9.25C7.31689 9.41113 7.02393 9.4917 6.70166 9.4917ZM6.70166 8.5835C6.9458 8.5835 7.14844 8.50049 7.30957 8.33447C7.47559 8.16846 7.55859 7.96582 7.55859 7.72656C7.55859 7.48242 7.47559 7.27979 7.30957 7.11865C7.14844 6.95264 6.9458 6.86963 6.70166 6.86963C6.4624 6.86963 6.25977 6.95264 6.09375 7.11865C5.92773 7.27979 5.84473 7.48242 5.84473 7.72656C5.84473 7.96582 5.92773 8.16846 6.09375 8.33447C6.25977 8.50049 6.4624 8.5835 6.70166 8.5835ZM2.42432 7.1333H5.44189V8.3125H2.42432C2.27783 8.3125 2.14844 8.25635 2.03613 8.14404C1.92383 8.03174 1.86768 7.89258 1.86768 7.72656C1.86768 7.56055 1.92383 7.42139 2.03613 7.30908C2.14844 7.19189 2.27783 7.1333 2.42432 7.1333ZM16.0327 7.1333C16.1987 7.1333 16.3379 7.19189 16.4502 7.30908C16.5674 7.42139 16.626 7.56055 16.626 7.72656C16.626 7.89258 16.5674 8.03174 16.4502 8.14404C16.3379 8.25635 16.1987 8.3125 16.0327 8.3125H7.86621V7.1333H16.0327ZM11.8726 5.00928C11.5503 5.00928 11.2549 4.93115 10.9863 4.7749C10.7227 4.61377 10.5103 4.40137 10.3491 4.1377C10.188 3.86914 10.1074 3.57373 10.1074 3.25146C10.1074 2.9292 10.188 2.63623 10.3491 2.37256C10.5103 2.104 10.7227 1.88916 10.9863 1.72803C11.2549 1.56689 11.5503 1.48633 11.8726 1.48633C12.1948 1.48633 12.4878 1.56689 12.7515 1.72803C13.02 1.88916 13.2324 2.104 13.3887 2.37256C13.5498 2.63623 13.6304 2.9292 13.6304 3.25146C13.6304 3.57373 13.5498 3.86914 13.3887 4.1377C13.2324 4.40137 13.02 4.61377 12.7515 4.7749C12.4878 4.93115 12.1948 5.00928 11.8726 5.00928ZM11.8726 4.1084C12.1118 4.1084 12.3145 4.02539 12.4805 3.85938C12.6465 3.68848 12.7295 3.4834 12.7295 3.24414C12.7295 3.00488 12.6465 2.80225 12.4805 2.63623C12.3145 2.47021 12.1118 2.38721 11.8726 2.38721C11.6333 2.38721 11.4307 2.47021 11.2646 2.63623C11.0986 2.80225 11.0156 3.00488 11.0156 3.24414C11.0156 3.4834 11.0986 3.68848 11.2646 3.85938C11.4307 4.02539 11.6333 4.1084 11.8726 4.1084ZM10.7446 2.66553V3.84473H2.45361C2.29248 3.84473 2.15332 3.78857 2.03613 3.67627C1.92383 3.55908 1.86768 3.41748 1.86768 3.25146C1.86768 3.09033 1.92383 2.95361 2.03613 2.84131C2.15332 2.72412 2.29248 2.66553 2.45361 2.66553H10.7446ZM16.062 2.66553C16.2134 2.66553 16.3452 2.72412 16.4575 2.84131C16.5698 2.95361 16.626 3.09033 16.626 3.25146C16.626 3.41748 16.5698 3.55908 16.4575 3.67627C16.3452 3.78857 16.2134 3.84473 16.062 3.84473H13.0444V2.66553H16.062Z" fill="black"/>
</g>
<defs>
<clipPath id="clip0_8_160">
<rect width="18" height="18" fill="white"/>
</clipPath>
</defs>
</svg>
