<?xml version="1.0" encoding="UTF-8"?>
<svg width="76px" height="76px" viewBox="0 0 76 76" version="1.1" xmlns="http://www.w3.org/2000/svg" xmlns:xlink="http://www.w3.org/1999/xlink">
    <title>Group 2</title>
    <g id="Page-1" stroke="none" stroke-width="1" fill="none" fill-rule="evenodd">
        <g id="Group-2" transform="translate(0.920000, 0.000000)" fill="#000000" fill-rule="nonzero">
            <path d="M37.56,32.59 C34.7985763,32.59 32.56,34.8285763 32.56,37.59 C32.56,40.3514237 34.7985763,42.59 37.56,42.59 C40.3214237,42.59 42.56,40.3514237 42.56,37.59 C42.56,34.8285763 40.3214237,32.59 37.56,32.59 Z" id="Path"></path>
            <path d="M37.56,0 L0,37.55 L37.56,75.11 L75.08,37.55 L37.56,0 Z M62.23,42.87 C55.34,45.79 50.13,43.42 50.13,43.42 C51.4597782,44.8552852 52.4959057,46.5368691 53.18,48.37 C53.7041957,50.1259822 53.9107682,51.9614296 53.79,53.79 C51.9648571,53.9051375 50.1336791,53.6986646 48.38,53.18 C46.5310178,52.4931716 44.8329437,51.4539502 43.38,50.12 C43.38,50.12 45.75,55.33 42.83,62.23 C41.6892625,64.9049727 39.8733108,67.2377986 37.56,69 C35.236113,67.2511612 33.406363,64.9286537 32.25,62.26 C29.33,55.36 31.7,50.15 31.7,50.15 C30.2470563,51.4839502 28.5489822,52.5231716 26.7,53.21 C24.9463209,53.7286646 23.1151429,53.9351375 21.29,53.82 C21.1692318,51.9914296 21.3758043,50.1559822 21.9,48.4 C22.5840943,46.5668691 23.6202218,44.8852852 24.95,43.45 C24.95,43.45 19.74,45.82 12.85,42.9 C10.1779713,41.7399398 7.85232089,39.9069827 6.1,37.58 C7.85423807,35.2573266 10.1795908,33.4280491 12.85,32.27 C19.74,29.35 24.95,31.72 24.95,31.72 C23.6146692,30.2699339 22.5782497,28.5708856 21.9,26.72 C21.3758043,24.9640178 21.1692318,23.1285704 21.29,21.3 C23.1151429,21.1848625 24.9463209,21.3913354 26.7,21.91 C28.5489822,22.5968284 30.2470563,23.6360498 31.7,24.97 C31.7,24.97 29.33,19.75 32.25,12.86 C33.406363,10.1913463 35.236113,7.86883878 37.56,6.12 C39.883887,7.86883878 41.713637,10.1913463 42.87,12.86 C45.79,19.75 43.42,24.97 43.42,24.97 C44.8729437,23.6360498 46.5710178,22.5968284 48.42,21.91 C50.1736791,21.3913354 52.0048571,21.1848625 53.83,21.3 C53.9507682,23.1285704 53.7441957,24.9640178 53.22,26.72 C52.5417503,28.5708856 51.5053308,30.2699339 50.17,31.72 C50.17,31.72 55.38,29.35 62.27,32.27 C64.9404092,33.4280491 67.2657619,35.2573266 69.02,37.58 C67.2528101,39.9014325 64.91314,41.7242388 62.23,42.87 L62.23,42.87 Z" id="Shape"></path>
        </g>
    </g>
</svg>